<svg version="1.1" id="Layer_1" xmlns="http://www.w3.org/2000/svg" xmlns:xlink="http://www.w3.org/1999/xlink" x="0px" y="0px"
	 width="100%" viewBox="0 0 500 500" enable-background="new 0 0 500 500" xml:space="preserve">
<path fill="#0E0E0E" opacity="1.000000" stroke="none" 
	d="
M1.000000,363.000000 
	C1.000000,242.375626 1.000000,121.751251 1.000000,1.063436 
	C167.565933,1.063436 334.131897,1.063436 500.848938,1.063436 
	C500.848938,167.666550 500.848938,334.333282 500.848938,501.000000 
	C498.645050,501.000000 496.312622,501.000000 493.362610,500.545349 
	C492.724792,409.571625 492.704803,319.052521 492.683411,228.533432 
	C492.682465,224.540771 492.821838,220.538254 492.566162,216.561493 
	C492.490051,215.377731 491.294189,213.282745 490.601013,213.278458 
	C485.368378,213.245956 480.133148,213.630722 474.662506,213.873611 
	C474.125519,213.758041 473.816040,213.702515 473.475098,213.294861 
	C473.452393,194.726410 473.452393,176.558563 473.452393,158.126984 
	C467.029968,158.126984 461.573273,158.126984 455.642944,158.075684 
	C366.136292,158.024368 277.103302,158.024368 188.070328,158.024368 
	C188.070419,158.360580 188.070526,158.696777 188.070633,159.032990 
	C277.161407,159.032990 366.252167,159.032990 455.357697,159.499008 
	C455.369080,162.615021 455.374268,165.265076 455.361053,167.915024 
	C455.264374,187.282471 455.164001,206.649902 454.591125,226.002228 
	C365.319763,225.987106 276.522034,225.987106 187.724335,225.987106 
	C187.726303,226.655945 187.728256,227.324768 187.730209,227.993607 
	C262.488647,227.993607 337.247070,227.993607 412.037720,228.461761 
	C411.995972,250.915329 411.921997,272.900726 411.390747,294.895203 
	C384.017487,294.910278 357.101501,294.916351 330.098206,294.465881 
	C330.010895,276.470917 330.010895,258.932465 330.010895,241.337479 
	C323.643555,241.337479 317.943542,241.337479 311.823120,241.337479 
	C311.823120,259.419159 311.823120,277.163666 311.366150,294.919556 
	C269.744385,294.898712 228.579575,294.866486 187.380859,294.433319 
	C187.474625,292.874908 187.766953,291.708405 187.704132,290.561371 
	C187.161499,280.655487 187.342422,270.620667 185.706512,260.893555 
	C184.500122,253.720215 179.476486,249.118652 171.422852,247.585220 
	C164.956757,246.354080 159.766418,248.642136 154.869583,251.348694 
	C132.924927,263.477875 111.199196,276.006012 89.470924,288.522980 
	C72.508743,298.294342 57.545784,311.505005 39.085552,318.648987 
	C25.610947,323.863495 18.738871,333.591644 15.731228,347.301117 
	C14.042125,355.000427 6.991498,358.756470 1.000000,363.000000 
M304.940979,204.087997 
	C304.940979,208.014786 304.940979,211.941559 304.940979,215.669128 
	C307.770447,215.669128 309.990021,215.669128 312.074738,215.669128 
	C312.074738,205.531708 312.273773,195.731857 311.916779,185.952301 
	C311.839905,183.846649 310.080750,180.364136 308.536591,180.018707 
	C303.813751,178.962189 298.820038,179.031113 293.926422,178.937149 
	C293.349365,178.926086 292.231415,180.617844 292.222015,181.529068 
	C292.104248,192.933517 292.144836,204.339600 292.144836,215.765533 
	C294.912750,215.765533 297.162964,215.765533 299.829895,215.765533 
	C299.829895,210.780441 299.829895,206.027390 299.829895,199.946411 
	C302.084412,201.433609 303.429688,202.321014 304.940979,204.087997 
M97.815804,210.370361 
	C97.815804,207.415100 97.815804,204.459839 97.815804,201.304413 
	C99.643135,201.304413 101.048119,201.304413 102.911697,201.304413 
	C102.911697,206.315887 102.911697,211.054291 102.911697,215.792297 
	C105.480095,215.792297 107.582443,215.792297 109.850983,215.792297 
	C109.850983,203.352829 109.850983,191.136063 109.850983,178.827576 
	C107.375114,178.827576 105.174843,178.827576 102.724457,178.827576 
	C102.724457,182.183167 102.743752,185.160919 102.718971,188.138306 
	C102.694717,191.053101 103.364159,194.650162 97.690689,192.823074 
	C97.690689,188.226868 97.690689,183.508804 97.690689,178.818039 
	C94.837875,178.818039 92.597504,178.818039 90.486526,178.818039 
	C90.486526,191.402466 90.486526,203.615143 90.486526,215.832336 
	C92.995972,215.832336 95.125320,215.832336 97.572380,215.832336 
	C97.659332,214.218658 97.737587,212.766510 97.815804,210.370361 
M318.112610,202.491089 
	C318.112610,206.930359 318.112610,211.369629 318.112610,215.724335 
	C320.970123,215.724335 323.226807,215.724335 325.939758,215.724335 
	C325.939758,210.719498 325.939758,205.984406 325.939758,200.970612 
	C327.825867,201.108246 329.218994,201.209900 330.807556,201.325821 
	C330.807556,206.307816 330.807556,210.954239 330.807556,215.797516 
	C333.267456,215.797516 335.504456,215.797516 337.683807,215.797516 
	C337.864899,215.291855 338.063660,214.994644 338.064545,214.696838 
	C338.091858,205.537247 338.170349,196.376907 338.086090,187.218140 
	C338.029541,181.070236 335.206390,178.586197 328.560699,178.486801 
	C321.598907,178.382660 318.406738,180.880722 318.155640,187.008209 
	C317.958069,191.829971 318.113892,196.666214 318.112610,202.491089 
M343.110596,195.505508 
	C343.110443,198.667984 343.077271,201.830856 343.115936,204.992859 
	C343.269592,217.558502 341.002747,216.056412 355.373810,215.934097 
	C360.299194,215.892181 362.975586,212.949387 363.068939,207.975922 
	C363.203247,200.821411 363.375214,193.645462 362.937622,186.515076 
	C362.796021,184.207657 361.168793,180.456070 359.562103,180.063690 
	C354.865479,178.916763 349.837097,178.998535 344.937286,178.980148 
	C344.333618,178.977875 343.269562,181.261154 343.196716,182.529968 
	C342.968170,186.511612 343.111267,190.514587 343.110596,195.505508 
M196.817200,200.473175 
	C196.817200,193.230728 196.817200,185.988266 196.817200,178.848557 
	C193.786545,178.848557 191.552719,178.848557 189.118103,178.848557 
	C189.118103,188.735977 188.982651,198.225174 189.171646,207.707886 
	C189.276031,212.945862 192.171417,215.639481 197.261520,216.000946 
	C204.110733,216.487305 208.599304,214.576721 208.786301,210.062729 
	C209.217148,199.661728 208.922974,189.230682 208.922974,178.694000 
	C206.370483,178.694000 204.279160,178.694000 201.694031,178.694000 
	C201.694031,187.557037 201.606750,196.181076 201.735565,204.801910 
	C201.789612,208.420120 200.274261,209.087219 196.817245,207.888931 
	C196.817245,205.736801 196.817245,203.604355 196.817200,200.473175 
M167.707077,215.211319 
	C170.498993,215.458649 173.317993,216.070496 176.076279,215.865417 
	C179.937912,215.578278 182.775391,213.413589 182.985977,209.292328 
	C183.246948,204.185303 183.048492,199.054779 183.048492,193.801804 
	C179.591995,193.801804 176.532349,193.801804 172.604538,193.801804 
	C173.889008,198.848221 175.026245,203.316162 176.266312,208.188110 
	C173.841721,208.188110 172.573120,208.188110 171.116486,208.188110 
	C171.116486,200.719681 171.116486,193.481979 171.116486,185.922424 
	C172.839874,186.102005 174.232010,186.247070 175.443054,186.373276 
	C175.773514,188.179245 176.025070,189.553986 176.233490,190.692947 
	C178.755096,190.692947 180.852402,190.692947 182.922882,190.692947 
	C183.510193,181.488602 181.336365,178.641281 173.830475,178.449005 
	C165.754471,178.242111 163.127457,180.995071 163.109650,189.714966 
	C163.098083,195.380829 162.697311,201.089844 163.283539,206.694519 
	C163.578842,209.517838 165.683365,212.151917 167.707077,215.211319 
M116.632156,210.438400 
	C119.277733,215.629715 123.446266,217.348419 130.037842,215.798935 
	C135.004745,214.631363 136.349625,211.072708 136.239456,206.384720 
	C136.086914,199.893539 136.301788,193.393982 136.165787,186.902069 
	C136.041946,180.991379 133.312912,178.625931 126.868065,178.455322 
	C119.807991,178.268433 116.376045,180.666367 116.203697,186.673279 
	C115.984360,194.317810 116.289070,201.977371 116.632156,210.438400 
M240.735092,198.516602 
	C240.735092,204.270218 240.735092,210.023819 240.735092,215.768707 
	C243.528122,215.768707 245.618851,215.768707 248.053009,215.768707 
	C248.053009,205.572784 248.202240,195.614548 247.986481,185.664230 
	C247.887054,181.079361 244.857910,178.814133 239.484879,178.466064 
	C233.052628,178.049377 228.877670,179.879227 228.627335,184.635483 
	C228.081482,195.005829 228.458633,205.424759 228.458633,215.635056 
	C231.097870,215.635056 233.335815,215.635056 235.901001,215.635056 
	C235.901001,205.652267 235.901001,196.043015 235.901001,186.308792 
	C237.627716,186.308792 238.999710,186.308792 240.734955,186.308792 
	C240.734955,190.247650 240.734955,193.887161 240.735092,198.516602 
M411.000641,201.933151 
	C407.813599,196.423538 401.234467,193.256134 399.362579,185.960831 
	C401.611633,186.100525 403.020996,186.188065 404.360291,186.271255 
	C404.615692,188.022278 404.821808,189.435364 405.023560,190.818665 
	C407.443451,190.818665 409.559753,190.818665 413.212952,190.818665 
	C411.743988,186.837601 411.205475,182.939880 409.097382,180.291443 
	C406.546356,177.086472 396.986450,177.948517 394.269745,180.824997 
	C391.136444,184.142609 391.238098,190.434753 394.679657,194.559738 
	C397.235168,197.622757 400.130096,200.406189 402.627625,203.512131 
	C403.537476,204.643616 403.735718,206.347336 404.258636,207.789948 
	C402.915894,208.034393 401.573151,208.278839 400.102722,208.546524 
	C399.786316,206.540497 399.563141,205.125504 399.327942,203.634079 
	C396.806824,203.634079 394.561218,203.634079 392.344330,203.634079 
	C391.700867,211.017639 393.287170,214.399887 397.840240,215.701782 
	C408.027588,218.614792 413.773102,213.060089 411.000641,201.933151 
M384.290985,201.016068 
	C389.512360,199.921234 385.969879,196.325180 386.937683,193.362885 
	C383.277161,193.362885 380.205566,193.362885 377.131836,193.362885 
	C377.131836,190.657028 377.131836,188.445435 377.131836,185.850586 
	C380.527954,185.850586 383.611542,185.850586 386.601257,185.850586 
	C386.601257,183.226593 386.601257,181.010391 386.601257,178.490143 
	C381.808289,178.490143 377.306671,178.173996 372.898071,178.675476 
	C371.506958,178.833710 369.321045,181.147537 369.276489,182.532074 
	C368.961243,192.322952 368.983063,202.132156 369.251129,211.925842 
	C369.289062,213.311905 371.143890,215.703812 372.330933,215.817169 
	C377.061554,216.268906 381.860687,216.003342 386.642365,216.003342 
	C386.642365,213.287994 386.642365,211.068039 386.642365,208.374115 
	C383.293915,208.374115 380.214447,208.374115 377.124969,208.374115 
	C377.124969,205.670624 377.124969,203.458298 377.124969,201.016724 
	C379.403900,201.016724 381.375854,201.016724 384.290985,201.016068 
M277.505188,178.464233 
	C274.390717,178.464233 271.276245,178.464233 267.939697,178.464233 
	C267.939697,181.171722 267.939697,183.424728 267.939697,185.749527 
	C269.834717,185.972885 271.573090,186.177780 273.716278,186.430374 
	C273.716278,196.396515 273.716278,206.110809 273.716278,215.697754 
	C276.397400,215.697754 278.626587,215.697754 281.199615,215.697754 
	C281.199615,205.634476 281.199615,195.890884 281.199615,186.213913 
	C283.307465,186.021805 285.047668,185.863190 286.592163,185.722427 
	C286.592163,183.128143 286.592163,181.025345 286.592163,178.464218 
	C283.716614,178.464218 281.085114,178.464218 277.505188,178.464233 
M147.747070,216.030838 
	C151.174683,216.030838 154.602295,216.030838 157.808228,216.030838 
	C157.808228,213.167465 157.808228,210.941574 157.808228,208.629608 
	C155.016342,208.445480 152.609772,208.286774 149.650528,208.091614 
	C149.650528,198.100647 149.650528,188.420624 149.650528,178.784424 
	C146.825897,178.784424 144.591324,178.784424 142.092133,178.784424 
	C142.092133,190.085129 142.131668,201.018433 142.068604,211.951157 
	C142.049088,215.334854 143.850983,216.283401 147.747070,216.030838 
M215.083313,194.502838 
	C215.083313,201.598389 215.083313,208.693939 215.083313,215.724106 
	C217.975723,215.724106 220.222977,215.724106 222.491150,215.724106 
	C222.491150,203.212799 222.491150,191.013779 222.491150,178.755219 
	C219.892914,178.755219 217.653229,178.755219 215.083450,178.755219 
	C215.083450,183.901428 215.083450,188.703323 215.083313,194.502838 
z"/>
<path fill="#41B8D5" opacity="1.000000" stroke="none" 
	d="
M455.064789,226.017349 
	C455.164001,206.649902 455.264374,187.282471 455.361053,167.915024 
	C455.374268,165.265076 455.369080,162.615021 455.550018,159.416138 
	C455.900421,158.643204 456.030090,158.396439 456.116577,158.126984 
	C461.573273,158.126984 467.029968,158.126984 473.452393,158.126984 
	C473.452393,176.558563 473.452393,194.726410 473.304047,213.761398 
	C473.170990,222.427383 473.186279,230.226212 473.142303,238.488464 
	C473.121674,251.292969 473.160309,263.634064 473.130768,276.440735 
	C473.119019,306.613708 473.175446,336.321014 473.161346,366.490234 
	C473.126678,388.306885 473.162506,409.661652 473.144348,431.410583 
	C473.125549,432.863800 473.160767,433.922852 473.141785,435.448669 
	C473.072540,456.033752 473.035919,476.152130 473.083832,496.270294 
	C473.087585,497.847565 473.680756,499.423462 474.000000,501.000000 
	C468.311951,501.000000 462.623932,501.000000 456.464844,500.531342 
	C455.981293,431.988953 455.979889,363.915192 455.931824,295.841492 
	C455.928589,291.230072 455.574371,286.618958 455.376099,281.538330 
	C455.282806,263.354523 455.196747,245.640060 455.175659,227.609222 
	C455.182007,226.867691 455.123383,226.442520 455.064789,226.017349 
z"/>
<path fill="#FAFBFB" opacity="1.000000" stroke="none" 
	d="
M82.000000,501.000000 
	C66.645775,501.000000 51.291546,501.000000 35.286171,500.721588 
	C31.755295,497.963257 28.875566,495.483368 25.997986,493.001709 
	C26.000132,492.999969 26.005476,492.994019 26.403267,492.932251 
	C28.958364,493.179321 31.115675,493.488159 33.868080,493.882233 
	C30.995693,491.153595 28.634998,488.911041 26.274303,486.668488 
	C26.389627,486.456940 26.504951,486.245361 26.620275,486.033813 
	C34.952377,489.625275 43.284477,493.216736 51.616581,496.808167 
	C51.802128,496.346191 51.987675,495.884216 52.173222,495.422241 
	C48.108536,492.615936 43.810558,490.089783 40.030605,486.941589 
	C33.379990,481.402527 27.254187,475.344055 26.351831,466.198730 
	C48.810989,475.697205 71.599167,482.697845 95.527702,485.550140 
	C114.701019,487.835663 133.730820,487.493134 152.473145,482.126251 
	C155.465515,481.269379 157.082809,479.745270 158.239624,476.779327 
	C162.945572,464.713562 168.110504,452.827362 172.861923,440.778656 
	C176.941864,430.432678 181.130630,420.095734 184.492722,409.507599 
	C191.635483,387.012848 179.496597,367.525391 156.482910,365.416687 
	C146.496811,364.501648 136.161377,365.341492 126.188934,366.790466 
	C108.865303,369.307526 93.999130,377.876923 80.002960,387.599304 
	C80.040031,386.375092 80.076508,385.559296 80.446335,384.538696 
	C82.699852,372.411011 84.014999,360.348053 86.733253,348.609985 
	C88.874542,339.363434 90.890030,329.111450 96.365860,321.886230 
	C101.911362,314.569092 111.588860,310.348267 119.553497,304.913361 
	C124.105095,301.807465 128.850159,298.985107 132.472733,296.690796 
	C132.997482,306.211243 133.365234,315.725006 134.119553,325.208038 
	C134.433136,329.150513 135.571701,333.027374 135.961349,336.940552 
	C133.158020,338.628479 130.728470,340.309845 128.298920,341.991241 
	C128.488205,342.286713 128.677490,342.582184 128.866776,342.877655 
	C131.974838,342.520111 135.082916,342.162537 138.339783,341.819305 
	C138.488586,341.833649 138.780579,341.769348 139.128342,341.775696 
	C140.719849,341.626556 141.963577,341.471100 143.432693,341.287445 
	C132.747665,347.145874 122.346565,352.848663 111.945457,358.551422 
	C121.819595,357.206696 131.000183,354.505981 140.332397,352.516510 
	C153.076935,349.799530 165.690643,349.897827 176.042862,359.247772 
	C180.366196,363.152496 183.506500,368.367126 187.365662,373.323730 
	C192.212173,390.673950 190.392303,407.102509 183.422470,423.189209 
	C178.556351,434.420441 173.406815,445.592682 169.541565,457.177521 
	C164.737259,471.576904 161.126343,486.374420 157.000000,501.000000 
	C151.311966,501.000000 145.623917,501.000000 139.578613,500.679291 
	C141.713913,498.510895 144.206497,496.663177 146.699081,494.815491 
	C131.891541,496.779205 117.513023,498.185394 103.075943,495.999664 
	C88.784851,493.836060 74.571594,491.158325 60.324196,488.706116 
	C60.134888,489.022430 59.945580,489.338745 59.756271,489.655060 
	C67.170845,493.436707 74.585426,497.218353 82.000000,501.000000 
M108.168633,331.856781 
	C110.732170,329.981506 113.414490,328.244995 115.820267,326.185425 
	C117.624725,324.640686 119.073448,322.680420 120.518242,321.084381 
	C112.880280,318.109680 104.564301,323.456543 101.743187,333.844177 
	C103.592552,333.193634 105.481346,332.529205 108.168633,331.856781 
M58.268620,487.475311 
	C58.455761,487.498352 58.642899,487.521362 58.830032,487.544403 
	C58.745838,487.457001 58.661640,487.369568 58.268620,487.475311 
M110.811363,360.524658 
	C110.635445,360.509521 110.459534,360.494385 110.283615,360.479279 
	C110.365387,360.558350 110.447151,360.637421 110.811363,360.524658 
z"/>
<path fill="#2C88B5" opacity="1.000000" stroke="none" 
	d="
M474.898743,213.885178 
	C480.133148,213.630722 485.368378,213.245956 490.601013,213.278458 
	C491.294189,213.282745 492.490051,215.377731 492.566162,216.561493 
	C492.821838,220.538254 492.682465,224.540771 492.683411,228.533432 
	C492.704803,319.052521 492.724792,409.571625 492.872528,500.545349 
	C487.311951,501.000000 481.623932,501.000000 475.463531,500.531372 
	C474.936829,478.067566 474.882446,456.072449 474.865479,433.720917 
	C474.887787,432.888855 474.872650,432.413177 474.901764,431.474792 
	C474.925964,409.347076 474.905945,387.682098 474.911682,365.548096 
	C474.917603,335.378754 474.897766,305.678436 474.918518,275.512848 
	C474.931702,262.705688 474.904327,250.363785 474.911774,237.553131 
	C474.930634,229.351318 474.914673,221.618240 474.898743,213.885178 
z"/>
<path fill="#2D8AB8" opacity="1.000000" stroke="none" 
	d="
M411.848022,294.886139 
	C411.921997,272.900726 411.995972,250.915329 412.398865,228.246140 
	C418.524170,227.720276 424.320496,227.878204 430.071594,228.501099 
	C430.031311,250.952637 430.036316,272.939209 430.018188,295.233765 
	C430.021088,295.745850 430.047089,295.949951 430.059845,296.612976 
	C430.109497,319.047424 430.172394,341.023010 430.174072,363.463623 
	C430.108643,386.879547 430.104462,409.830414 430.049469,433.089386 
	C430.006653,433.605530 430.014587,433.813538 430.015869,434.488831 
	C430.006134,456.970734 430.003082,478.985352 430.000000,501.000000 
	C424.311951,501.000000 418.623932,501.000000 412.501251,500.532288 
	C412.010193,478.709930 411.953735,457.355286 411.960999,435.534668 
	C412.004639,434.078217 411.968536,433.087769 411.966766,432.097229 
	C411.927460,410.064819 411.891998,388.032410 411.796448,365.639160 
	C411.852539,363.861847 412.069794,362.445251 412.068298,361.028931 
	C412.045563,339.681244 411.994080,318.333618 411.991119,296.635559 
	C411.971283,295.818848 411.909637,295.352478 411.848022,294.886139 
z"/>
<path fill="#6CE4E7" opacity="1.000000" stroke="none" 
	d="
M311.823120,294.908203 
	C311.823120,277.163666 311.823120,259.419159 311.823120,241.337479 
	C317.943542,241.337479 323.643555,241.337479 330.010895,241.337479 
	C330.010895,258.932465 330.010895,276.470917 330.020508,294.812592 
	C330.056610,296.084351 330.083160,296.552887 330.048279,297.485748 
	C330.050171,319.628906 330.113434,341.307709 330.131317,363.454407 
	C330.139862,387.287689 330.193787,410.653137 330.126526,434.471985 
	C330.003571,456.950287 330.001770,478.975128 330.000000,501.000000 
	C324.311951,501.000000 318.623932,501.000000 312.467285,500.531342 
	C311.948761,478.067017 311.898804,456.071320 311.912537,433.722473 
	C311.943970,432.894928 311.911713,432.420532 311.933807,431.483704 
	C311.993073,410.437805 312.017548,389.854279 311.967834,369.270966 
	C311.963593,367.517761 311.464783,365.765717 311.444458,363.947571 
	C311.761536,363.573730 311.829895,363.265472 311.943420,362.493225 
	C311.957397,340.367493 311.926239,318.705780 311.960968,296.689178 
	C311.958954,295.858917 311.891052,295.383545 311.823120,294.908203 
z"/>
<path fill="#141A1A" opacity="1.000000" stroke="none" 
	d="
M157.399994,501.000000 
	C161.126343,486.374420 164.737259,471.576904 169.541565,457.177521 
	C173.406815,445.592682 178.556351,434.420441 183.422470,423.189209 
	C190.392303,407.102509 192.212173,390.673950 187.435059,372.919739 
	C178.516754,348.947998 176.630707,324.838684 178.305054,299.928864 
	C177.857224,296.890442 177.899597,293.878357 176.628799,291.598145 
	C171.677704,282.714233 163.117828,281.125580 151.454727,286.284637 
	C148.750916,287.480652 147.322189,288.874207 147.288635,292.105713 
	C147.251175,295.713226 147.076721,299.629089 145.679123,302.855042 
	C141.365082,312.812714 140.401276,323.326721 139.281479,334.314209 
	C139.038040,337.084839 138.909302,339.427094 138.780579,341.769348 
	C138.780579,341.769348 138.488586,341.833649 138.272186,341.493591 
	C137.482239,339.747040 136.908691,338.340546 136.335129,336.934052 
	C135.571701,333.027374 134.433136,329.150513 134.119553,325.208038 
	C133.365234,315.725006 132.997482,306.211243 132.472733,296.690796 
	C128.850159,298.985107 124.105095,301.807465 119.553497,304.913361 
	C111.588860,310.348267 101.911362,314.569092 96.365860,321.886230 
	C90.890030,329.111450 88.874542,339.363434 86.733253,348.609985 
	C84.014999,360.348053 82.699852,372.411011 80.458054,384.146881 
	C79.199554,380.286469 78.201523,376.627350 77.337128,372.936981 
	C74.588867,361.203888 71.125702,349.465118 77.055450,337.650208 
	C77.099083,337.563293 76.706192,337.257294 76.172470,336.682251 
	C72.807747,339.838837 69.458534,342.980865 65.836121,346.152100 
	C65.428474,346.494110 65.294029,346.806885 65.104958,347.074097 
	C65.050331,347.028534 65.131348,347.145477 64.851501,347.136414 
	C64.250420,347.558197 63.929173,347.989014 63.562653,348.444336 
	C63.517384,348.468872 63.461651,348.555450 63.144562,348.654419 
	C54.580090,357.861877 45.229546,366.211670 38.328632,376.246124 
	C26.189960,393.896729 15.567710,412.588928 4.239677,430.800934 
	C3.460186,432.054138 2.093569,432.942139 0.999996,434.000000 
	C1.000000,432.285645 1.000000,430.571289 1.267909,428.216370 
	C4.612143,422.256989 7.765864,416.981171 10.752040,411.612183 
	C28.291452,380.077393 49.263790,351.384369 78.747337,329.810669 
	C81.659340,327.679901 80.827423,325.495392 79.781006,323.356415 
	C77.554146,318.804565 77.674690,314.451752 79.763229,309.941986 
	C80.421440,308.520660 80.633263,306.892639 81.484840,303.754517 
	C76.194939,307.171570 72.159042,309.778564 67.497078,312.790009 
	C69.913712,313.489258 71.557480,313.964905 72.000648,314.093140 
	C60.518555,319.136475 48.197285,324.424072 36.013264,330.010986 
	C33.734760,331.055786 32.006065,333.299591 29.752293,335.233459 
	C29.434893,336.183014 29.388842,336.889191 29.383839,337.837524 
	C29.373247,338.411621 29.241066,338.707611 28.667955,339.029358 
	C26.865030,343.047485 25.622066,347.092621 23.914986,350.931366 
	C22.617472,353.849121 21.063675,356.787476 19.016644,359.201813 
	C16.684874,361.951965 13.644888,364.093781 10.974439,366.566650 
	C7.616936,369.675812 4.321971,372.852478 1.000005,376.000000 
	C1.000000,374.611115 1.000000,373.222198 1.269248,371.222015 
	C6.291815,365.943298 11.212476,361.429993 15.719229,356.535553 
	C17.623537,354.467438 19.418407,351.749481 19.955719,349.065216 
	C22.492582,336.391663 28.873920,327.587067 41.330147,322.474243 
	C50.771591,318.598846 59.485481,312.827911 68.252342,307.458374 
	C84.999382,297.201111 101.295074,286.184082 118.266350,276.322693 
	C132.763031,267.899200 147.780533,260.315033 162.887268,253.021622 
	C170.913177,249.146774 178.094254,252.860107 181.200302,261.277710 
	C182.056198,263.597260 182.946106,266.087616 182.956985,268.503479 
	C183.001007,278.301544 183.003433,288.116821 182.480423,297.896851 
	C181.328491,319.437683 180.769211,340.933105 188.342178,361.589111 
	C197.365036,386.199860 195.317352,409.778595 183.423538,432.972687 
	C179.420090,440.779816 176.218826,449.099304 173.562317,457.473724 
	C168.997849,471.862885 165.149155,486.479095 161.000000,501.000000 
	C159.933334,501.000000 158.866653,501.000000 157.399994,501.000000 
M156.014359,261.017365 
	C156.014359,261.017365 156.018723,260.934235 155.335541,260.507782 
	C145.062820,264.865143 140.197906,277.891357 146.644684,284.141693 
	C148.095428,283.495758 149.580811,282.791290 151.098709,282.165680 
	C160.409149,278.328186 169.362045,277.292175 177.141617,285.513580 
	C177.233795,285.610962 177.843567,285.218597 178.956161,284.801300 
	C181.438080,277.338043 179.364319,270.173584 177.501297,263.003967 
	C176.483017,259.085205 173.932602,255.899109 169.966965,256.233521 
	C165.754898,256.588745 161.686508,258.647522 156.759155,259.962708 
	C156.483154,260.315002 156.207153,260.667297 156.014359,261.017365 
M130.870682,292.999725 
	C131.693619,291.672760 133.357422,290.229614 133.192932,289.039093 
	C132.505219,284.061951 131.268707,279.160706 130.126236,273.721893 
	C121.400497,279.012360 112.469551,284.395081 103.592552,289.865356 
	C102.813675,290.345306 102.240097,291.327759 101.822632,292.197510 
	C98.947624,298.187592 95.936279,304.126465 93.419228,310.266449 
	C92.528137,312.440094 92.894562,315.129272 92.633476,318.214294 
	C105.796509,309.511078 117.990715,301.448425 130.870682,292.999725 
M88.807716,316.774414 
	C88.867950,314.700500 88.454506,312.469116 89.081375,310.583588 
	C90.664375,305.822235 92.715508,301.216461 94.848274,295.874023 
	C89.892670,297.754456 86.847206,300.029449 85.859131,304.678070 
	C85.139381,308.064270 83.587120,311.266235 82.710556,314.629730 
	C82.323296,316.115662 82.175217,318.046692 82.803436,319.348694 
	C85.632484,325.211975 85.234207,330.761719 82.303856,336.454315 
	C80.795082,339.385315 79.382568,342.515778 78.766853,345.717682 
	C78.033867,349.529419 78.202538,353.514587 77.980545,357.424591 
	C78.497543,357.457703 79.014542,357.490814 79.531532,357.523926 
	C82.310608,348.366638 85.328453,339.272095 87.757271,330.022827 
	C88.803673,326.037964 88.630165,321.732727 88.807716,316.774414 
M142.288757,299.559204 
	C143.278915,293.662720 144.221939,287.908295 140.186798,282.452026 
	C139.072113,280.944794 139.364639,278.084503 139.655334,275.931946 
	C139.993179,273.430115 141.039032,271.023895 141.890152,268.203156 
	C136.280563,270.171295 133.223831,275.759338 135.594162,281.679382 
	C138.977768,290.130127 138.368149,298.312256 136.627930,306.787537 
	C136.122772,309.247772 136.259262,311.839752 136.101608,314.371307 
	C136.537903,314.388977 136.974182,314.406616 137.410461,314.424255 
	C138.972031,309.743958 140.533600,305.063629 142.288757,299.559204 
z"/>
<path fill="#6AE1E4" opacity="1.000000" stroke="none" 
	d="
M454.000000,501.000000 
	C448.311951,501.000000 442.623932,501.000000 436.622498,500.552979 
	C436.260590,478.005493 436.212036,455.905029 436.229645,433.616394 
	C436.295776,433.428253 436.085541,433.089172 436.158569,432.619080 
	C436.281372,419.541473 436.395447,406.933777 436.360291,394.326508 
	C436.333008,384.553345 436.119293,374.780762 436.209961,364.950867 
	C436.254181,364.591583 436.076904,364.289307 436.011017,363.749634 
	C436.084656,363.341461 436.046875,363.170746 436.160736,362.552155 
	C436.245941,340.028442 436.179474,317.952606 436.205811,295.703461 
	C436.298584,295.530182 436.145050,295.168335 436.223999,294.702881 
	C436.302948,290.295746 436.302948,286.354034 436.302948,282.130035 
	C442.677643,282.130035 448.290436,282.130035 453.945770,282.588806 
	C453.992218,355.698364 453.996124,428.349182 454.000000,501.000000 
z"/>
<path fill="#6BE3E6" opacity="1.000000" stroke="none" 
	d="
M392.000000,501.000000 
	C386.311951,501.000000 380.623932,501.000000 374.508789,500.532837 
	C374.085785,492.775665 374.128418,485.485413 374.085785,478.195648 
	C373.999573,463.465393 373.867096,448.735474 373.816040,433.539215 
	C373.952057,431.079437 374.095276,429.085602 374.088776,427.092255 
	C374.019226,405.726898 373.926025,384.361633 373.949097,362.539276 
	C374.031860,340.386597 374.004913,318.691010 374.267365,296.682678 
	C380.414886,296.588654 386.273010,296.807343 392.074524,297.490631 
	C392.077148,320.636597 392.136353,343.317932 392.110901,366.461243 
	C392.099609,388.615234 392.172974,410.307220 392.210266,432.467010 
	C392.116119,455.623199 392.058075,478.311584 392.000000,501.000000 
z"/>
<path fill="#2D89B8" opacity="1.000000" stroke="none" 
	d="
M306.000000,501.000000 
	C300.311951,501.000000 294.623932,501.000000 288.466431,500.531342 
	C287.942963,478.070312 287.888947,456.077972 287.884033,433.733368 
	C287.911194,432.909576 287.889313,432.437988 287.918884,431.502441 
	C287.921417,409.069244 287.872559,387.100037 287.857361,364.801727 
	C287.858154,364.254608 287.825256,364.036530 287.860535,363.365845 
	C287.926727,340.952820 287.924805,318.992401 288.199799,296.706238 
	C294.247559,296.590027 300.018402,296.799561 305.789124,297.477295 
	C305.812347,319.637787 305.835724,341.330078 305.684937,363.184448 
	C305.655426,363.900513 305.800079,364.454468 305.896454,365.474670 
	C305.868103,387.962799 305.888000,409.984741 305.729736,432.172546 
	C305.694519,432.899750 305.837524,433.461029 305.909149,434.485168 
	C305.891846,456.965363 305.945923,478.982666 306.000000,501.000000 
z"/>
<path fill="#86B9BA" opacity="1.000000" stroke="none" 
	d="
M0.999996,434.468658 
	C2.093569,432.942139 3.460186,432.054138 4.239677,430.800934 
	C15.567710,412.588928 26.189960,393.896729 38.328632,376.246124 
	C45.229546,366.211670 54.580090,357.861877 63.354889,348.992310 
	C63.024124,350.809845 62.203857,352.410492 61.301903,353.963745 
	C52.047153,369.901031 42.737587,385.806793 33.556000,401.786072 
	C32.032204,404.437988 31.050865,407.401581 29.818851,410.221161 
	C30.113554,410.372437 30.408258,410.523743 30.702961,410.675018 
	C36.498833,402.259613 42.294701,393.844208 48.549473,384.762482 
	C48.287403,390.186188 47.546227,394.530914 47.984375,398.753296 
	C48.888245,407.463715 47.615757,414.913971 40.185814,420.778015 
	C37.305763,423.051086 35.522781,426.786652 33.448772,429.991058 
	C30.593315,434.402802 27.935898,438.942780 25.193630,443.427795 
	C25.638712,443.736450 26.083794,444.045135 26.528875,444.353790 
	C29.011505,441.565521 31.394964,438.680420 33.999912,436.011536 
	C37.950882,431.963623 42.055779,428.065887 46.122124,424.458221 
	C39.468784,436.796692 32.717365,448.742859 26.205305,460.818146 
	C25.454611,462.210175 26.036497,464.320801 26.000536,466.098267 
	C27.254187,475.344055 33.379990,481.402527 40.030605,486.941589 
	C43.810558,490.089783 48.108536,492.615936 52.173222,495.422241 
	C51.987675,495.884216 51.802128,496.346191 51.616581,496.808167 
	C43.284477,493.216736 34.952377,489.625275 26.620275,486.033813 
	C26.504951,486.245361 26.389627,486.456940 26.274303,486.668488 
	C28.634998,488.911041 30.995693,491.153595 33.868080,493.882233 
	C31.115675,493.488159 28.958364,493.179321 26.386486,492.735718 
	C25.769609,492.607361 25.567303,492.613708 25.364998,492.620056 
	C25.575285,492.747833 25.785572,492.875641 25.995850,493.003479 
	C28.875566,495.483368 31.755295,497.963257 34.817513,500.721588 
	C30.975456,501.000000 26.950911,501.000000 22.783829,500.734314 
	C15.809855,494.529266 8.982972,488.584595 2.119299,482.682709 
	C1.957072,482.543213 1.382321,482.883484 0.999997,483.000000 
	C1.000000,466.979095 1.000000,450.958221 0.999996,434.468658 
z"/>
<path fill="#2D8AB9" opacity="1.000000" stroke="none" 
	d="
M368.000000,501.000000 
	C362.311951,501.000000 356.623932,501.000000 350.467682,500.531342 
	C349.944458,478.375977 349.889435,456.689301 349.851349,434.533386 
	C349.853973,411.380798 349.839661,388.697418 349.857025,365.634399 
	C349.857300,364.495056 349.825867,363.735260 349.876160,362.514862 
	C349.957855,351.508575 349.957855,340.962921 349.957855,330.001465 
	C354.567017,330.001465 358.377869,330.264740 362.136230,329.933105 
	C366.580261,329.540985 368.264771,330.848053 368.091034,335.639648 
	C367.760956,344.744232 368.135437,353.874390 368.152954,363.459351 
	C368.047882,372.376831 367.941254,380.829163 367.980896,389.280823 
	C368.050903,404.190735 368.210083,419.100250 368.190948,434.458588 
	C368.033264,456.938171 368.016632,478.969086 368.000000,501.000000 
z"/>
<path fill="#41B7D4" opacity="1.000000" stroke="none" 
	d="
M349.000000,501.000000 
	C343.311951,501.000000 337.623932,501.000000 331.466614,500.531342 
	C330.904938,478.050781 330.812500,456.038910 330.773987,433.558350 
	C330.827911,410.285797 330.827911,387.481873 330.827911,364.130981 
	C336.480713,364.130981 341.257477,364.020172 346.021606,364.216492 
	C347.083557,364.260223 348.101013,365.383728 349.065918,366.473083 
	C349.043671,389.624695 349.094513,412.313263 349.072113,435.465332 
	C348.999268,457.619202 348.999634,479.309601 349.000000,501.000000 
z"/>
<path fill="#5FE1D4" opacity="1.000000" stroke="none" 
	d="
M161.416656,501.000000 
	C165.149155,486.479095 168.997849,471.862885 173.562317,457.473724 
	C176.218826,449.099304 179.420090,440.779816 183.423538,432.972687 
	C195.317352,409.778595 197.365036,386.199860 188.342178,361.589111 
	C180.769211,340.933105 181.328491,319.437683 182.480423,297.896851 
	C183.003433,288.116821 183.001007,278.301544 182.956985,268.503479 
	C182.946106,266.087616 182.056198,263.597260 181.200302,261.277710 
	C178.094254,252.860107 170.913177,249.146774 162.887268,253.021622 
	C147.780533,260.315033 132.763031,267.899200 118.266350,276.322693 
	C101.295074,286.184082 84.999382,297.201111 68.252342,307.458374 
	C59.485481,312.827911 50.771591,318.598846 41.330147,322.474243 
	C28.873920,327.587067 22.492582,336.391663 19.955719,349.065216 
	C19.418407,351.749481 17.623537,354.467438 15.719229,356.535553 
	C11.212476,361.429993 6.291815,365.943298 1.269248,370.805359 
	C1.000000,368.629425 1.000000,366.258881 1.000000,363.444153 
	C6.991498,358.756470 14.042125,355.000427 15.731228,347.301117 
	C18.738871,333.591644 25.610947,323.863495 39.085552,318.648987 
	C57.545784,311.505005 72.508743,298.294342 89.470924,288.522980 
	C111.199196,276.006012 132.924927,263.477875 154.869583,251.348694 
	C159.766418,248.642136 164.956757,246.354080 171.422852,247.585220 
	C179.476486,249.118652 184.500122,253.720215 185.706512,260.893555 
	C187.342422,270.620667 187.161499,280.655487 187.704132,290.561371 
	C187.766953,291.708405 187.474625,292.874908 187.256866,294.794067 
	C187.172226,296.059875 187.177658,296.563934 187.120972,297.529175 
	C186.844513,302.147125 186.543594,306.301575 186.430801,310.461151 
	C185.936325,328.696960 186.950577,346.723389 194.106522,364.056183 
	C194.045929,364.571960 194.160782,364.823151 194.464417,365.427307 
	C195.907181,373.979065 197.933456,382.074860 198.520111,390.273682 
	C199.574020,405.002899 194.951187,418.686493 188.870087,432.192719 
	C188.483780,432.965424 188.291672,433.515625 187.870117,434.339478 
	C182.521667,448.090363 177.030273,461.441864 172.421021,475.091248 
	C169.584091,483.492279 168.094528,492.348267 166.000000,501.000000 
	C164.611115,501.000000 163.222214,501.000000 161.416656,501.000000 
z"/>
<path fill="#2C89B7" opacity="1.000000" stroke="none" 
	d="
M243.000000,501.000000 
	C237.311966,501.000000 231.623917,501.000000 225.539764,500.535828 
	C225.090485,479.047760 225.037338,458.023865 225.059937,436.534851 
	C225.153030,418.099945 225.105301,400.129395 225.317001,382.161926 
	C225.333115,380.793518 227.088272,378.378632 228.203842,378.275513 
	C232.935333,377.838074 237.730576,378.089905 243.006424,378.089905 
	C243.006424,380.670593 242.996872,382.625793 243.007950,384.580872 
	C243.097488,400.386841 243.190903,416.192780 243.255814,432.467255 
	C243.152313,455.623840 243.076157,478.311920 243.000000,501.000000 
z"/>
<path fill="#0E0F0F" opacity="1.000000" stroke="none" 
	d="
M166.468658,501.000000 
	C168.094528,492.348267 169.584091,483.492279 172.421021,475.091248 
	C177.030273,461.441864 182.521667,448.090363 188.331665,434.330994 
	C194.669983,434.042450 200.317368,434.036041 206.061951,434.487915 
	C206.106110,456.964142 206.053055,478.982056 206.000000,501.000000 
	C192.979111,501.000000 179.958206,501.000000 166.468658,501.000000 
z"/>
<path fill="#41B6D3" opacity="1.000000" stroke="none" 
	d="
M411.000000,501.000000 
	C405.311951,501.000000 399.623932,501.000000 393.508301,500.532776 
	C392.982941,477.376526 392.885193,454.687500 392.913269,431.544586 
	C393.039093,420.513519 393.039093,409.936310 393.039093,399.329437 
	C399.503082,399.329437 405.069427,399.329437 411.169739,399.329437 
	C411.169739,411.772278 411.169739,423.886810 411.100159,436.465271 
	C411.020386,458.286133 411.010193,479.643066 411.000000,501.000000 
z"/>
<path fill="#61E6DA" opacity="1.000000" stroke="none" 
	d="
M30.023638,334.990082 
	C32.006065,333.299591 33.734760,331.055786 36.013264,330.010986 
	C48.197285,324.424072 60.518555,319.136475 72.000648,314.093140 
	C71.557480,313.964905 69.913712,313.489258 67.497078,312.790009 
	C72.159042,309.778564 76.194939,307.171570 81.484840,303.754517 
	C80.633263,306.892639 80.421440,308.520660 79.763229,309.941986 
	C77.674690,314.451752 77.554146,318.804565 79.781006,323.356415 
	C80.827423,325.495392 81.659340,327.679901 78.747337,329.810669 
	C49.263790,351.384369 28.291452,380.077393 10.752040,411.612183 
	C7.765864,416.981171 4.612143,422.256989 1.267909,427.787903 
	C1.000000,420.979034 1.000000,413.958099 1.322637,406.334625 
	C5.495358,398.549194 9.345441,391.366302 13.417934,384.040833 
	C13.265381,383.710266 12.890416,383.522278 12.185410,383.442444 
	C9.980705,384.451447 8.106044,385.352295 6.050257,386.046936 
	C5.745323,385.705994 5.621514,385.571259 5.669624,385.155884 
	C14.004404,375.269714 23.726507,367.582886 35.247894,361.315125 
	C28.237213,355.093933 28.811195,346.985779 29.028347,338.967651 
	C29.241066,338.707611 29.373247,338.411621 29.609858,337.568420 
	C29.871096,336.368134 29.947367,335.679108 30.023638,334.990082 
M52.053951,347.642395 
	C56.632042,341.680328 61.210129,335.718292 65.788216,329.756226 
	C65.370247,329.281769 64.952271,328.807312 64.534302,328.332825 
	C53.721252,331.040131 42.908207,333.747437 31.966158,336.487030 
	C32.296894,342.489288 33.533794,347.578552 38.750381,350.537415 
	C43.547745,353.258484 47.679260,351.195099 52.053951,347.642395 
z"/>
<path fill="#6AE0E3" opacity="1.000000" stroke="none" 
	d="
M268.000000,501.000000 
	C262.311951,501.000000 256.623932,501.000000 250.464462,500.531342 
	C249.911926,477.374969 249.830811,454.687256 249.855255,431.546631 
	C249.960815,427.343842 249.960815,423.593994 249.960815,419.121460 
	C256.010651,419.403473 261.400696,419.654724 266.790710,419.906006 
	C267.185272,423.944244 267.579834,427.982483 267.897217,432.351105 
	C267.887451,433.127045 267.954834,433.572571 267.912201,434.474609 
	C267.868134,456.954071 267.934082,478.977051 268.000000,501.000000 
z"/>
<path fill="#40B4D1" opacity="1.000000" stroke="none" 
	d="
M206.467941,501.000000 
	C206.053055,478.982056 206.106110,456.964142 206.126053,434.155304 
	C206.064560,432.916962 206.036179,432.469482 206.088150,431.567017 
	C206.183731,428.294128 205.927200,425.435730 206.338989,422.677094 
	C206.520676,421.459900 207.998718,419.556335 208.991547,419.489044 
	C213.876404,419.157990 218.795944,419.338623 224.173721,419.338623 
	C224.173721,425.774170 224.173721,431.387787 224.105164,437.465454 
	C224.024414,458.953003 224.012207,479.976501 224.000000,501.000000 
	C218.311966,501.000000 212.623917,501.000000 206.467941,501.000000 
z"/>
<path fill="#0E0E0E" opacity="1.000000" stroke="none" 
	d="
M268.250000,501.000000 
	C267.934082,478.977051 267.868134,456.954071 268.379150,434.478699 
	C275.249054,434.046051 281.541992,434.065826 287.834961,434.085602 
	C287.888947,456.077972 287.942963,478.070312 287.998474,500.531342 
	C288.000000,501.000000 287.500000,501.000000 287.160767,500.538391 
	C286.807800,492.942596 286.947540,485.802124 286.654572,478.679413 
	C286.593811,477.202454 285.031677,474.642426 283.982147,474.546631 
	C279.114655,474.102417 274.184052,474.350189 269.000000,474.350189 
	C269.000000,483.772949 269.000000,492.386475 269.000000,501.000000 
	C269.000000,501.000000 268.500000,501.000000 268.250000,501.000000 
z"/>
<path fill="#0D3546" opacity="1.000000" stroke="none" 
	d="
M28.667955,339.029358 
	C28.811195,346.985779 28.237213,355.093933 35.247894,361.315125 
	C23.726507,367.582886 14.004404,375.269714 5.434219,385.310974 
	C4.874813,386.087189 4.722730,386.427734 4.570647,386.768250 
	C5.124225,386.596558 5.677804,386.424835 6.231381,386.253143 
	C8.106044,385.352295 9.980705,384.451447 12.340699,383.666504 
	C12.949195,383.916077 13.072358,384.049744 13.195524,384.183380 
	C9.345441,391.366302 5.495358,398.549194 1.322637,405.866058 
	C1.000000,396.312439 1.000000,386.624878 1.000005,376.468658 
	C4.321971,372.852478 7.616936,369.675812 10.974439,366.566650 
	C13.644888,364.093781 16.684874,361.951965 19.016644,359.201813 
	C21.063675,356.787476 22.617472,353.849121 23.914986,350.931366 
	C25.622066,347.092621 26.865030,343.047485 28.667955,339.029358 
z"/>
<path fill="#3FB3CF" opacity="1.000000" stroke="none" 
	d="
M269.467957,501.000000 
	C269.000000,492.386475 269.000000,483.772949 269.000000,474.350189 
	C274.184052,474.350189 279.114655,474.102417 283.982147,474.546631 
	C285.031677,474.642426 286.593811,477.202454 286.654572,478.679413 
	C286.947540,485.802124 286.807800,492.942596 286.910767,500.538391 
	C281.311951,501.000000 275.623932,501.000000 269.467957,501.000000 
z"/>
<path fill="#100F0F" opacity="1.000000" stroke="none" 
	d="
M249.749695,431.999512 
	C249.830811,454.687256 249.911926,477.374969 249.996521,500.531342 
	C247.958328,501.000000 245.916672,501.000000 243.437500,501.000000 
	C243.076157,478.311920 243.152313,455.623840 243.658310,432.466736 
	C245.975327,431.998352 247.862503,431.998932 249.749695,431.999512 
z"/>
<path fill="#35747C" opacity="1.000000" stroke="none" 
	d="
M454.333313,501.000000 
	C453.996124,428.349182 453.992218,355.698364 454.313293,282.528015 
	C454.886627,282.008270 455.134979,282.007996 455.383362,282.007690 
	C455.574371,286.618958 455.928589,291.230072 455.931824,295.841492 
	C455.979889,363.915192 455.981293,431.988953 455.996887,500.531342 
	C455.555542,501.000000 455.111115,501.000000 454.333313,501.000000 
z"/>
<path fill="#89BCBD" opacity="1.000000" stroke="none" 
	d="
M82.468658,501.000000 
	C74.585426,497.218353 67.170845,493.436707 59.756271,489.655060 
	C59.945580,489.338745 60.134888,489.022430 60.324196,488.706116 
	C74.571594,491.158325 88.784851,493.836060 103.075943,495.999664 
	C117.513023,498.185394 131.891541,496.779205 146.699081,494.815491 
	C144.206497,496.663177 141.713913,498.510895 139.110672,500.679291 
	C120.312439,501.000000 101.624878,501.000000 82.468658,501.000000 
z"/>
<path fill="#0E0E0E" opacity="1.000000" stroke="none" 
	d="
M436.163513,433.804504 
	C436.212036,455.905029 436.260590,478.005493 436.154541,500.552979 
	C434.285645,501.000000 432.571289,501.000000 430.428467,501.000000 
	C430.003082,478.985352 430.006134,456.970734 430.446472,434.403870 
	C432.643677,433.835938 434.403595,433.820221 436.163513,433.804504 
z"/>
<path fill="#0E0E0E" opacity="1.000000" stroke="none" 
	d="
M368.428467,501.000000 
	C368.016632,478.969086 368.033264,456.938171 368.576233,434.458374 
	C370.652924,434.008118 372.203308,434.006775 373.753662,434.005402 
	C373.867096,448.735474 373.999573,463.465393 374.085785,478.195648 
	C374.128418,485.485413 374.085785,492.775665 374.040833,500.532837 
	C372.285645,501.000000 370.571289,501.000000 368.428467,501.000000 
z"/>
<path fill="#0E0E0E" opacity="1.000000" stroke="none" 
	d="
M306.428467,501.000000 
	C305.945923,478.982666 305.891846,456.965363 306.329346,434.479248 
	C308.496918,434.032196 310.172852,434.053925 311.848816,434.075684 
	C311.898804,456.071320 311.948761,478.067017 311.999359,500.531342 
	C310.285645,501.000000 308.571289,501.000000 306.428467,501.000000 
z"/>
<path fill="#101010" opacity="1.000000" stroke="none" 
	d="
M0.999997,483.469696 
	C1.382321,482.883484 1.957072,482.543213 2.119299,482.682709 
	C8.982972,488.584595 15.809855,494.529266 22.320646,500.734314 
	C15.079895,501.000000 8.159790,501.000000 1.000000,501.000000 
	C1.000000,495.315369 1.000000,489.627380 0.999997,483.469696 
z"/>
<path fill="#1F526D" opacity="1.000000" stroke="none" 
	d="
M474.828094,434.077301 
	C474.882446,456.072449 474.936829,478.067566 474.995605,500.531372 
	C475.000000,501.000000 474.500000,501.000000 474.250000,501.000000 
	C473.680756,499.423462 473.087585,497.847565 473.083832,496.270294 
	C473.035919,476.152130 473.072540,456.033752 473.350372,435.341797 
	C474.018097,434.537872 474.423096,434.307587 474.828094,434.077301 
z"/>
<path fill="#100F0F" opacity="1.000000" stroke="none" 
	d="
M392.787445,431.998444 
	C392.885193,454.687500 392.982941,477.376526 393.040344,500.532776 
	C393.000000,501.000000 392.500000,501.000000 392.250000,501.000000 
	C392.058075,478.311584 392.116119,455.623199 392.345551,432.466522 
	C392.516907,431.998260 392.787445,431.998444 392.787445,431.998444 
z"/>
<path fill="#0E0E0E" opacity="1.000000" stroke="none" 
	d="
M330.720032,434.027008 
	C330.812500,456.038910 330.904938,478.050781 330.998688,500.531342 
	C331.000000,501.000000 330.500000,501.000000 330.250000,501.000000 
	C330.001770,478.975128 330.003571,456.950287 330.244507,434.480896 
	C330.483612,434.036407 330.720032,434.027008 330.720032,434.027008 
z"/>
<path fill="#0E0E0E" opacity="1.000000" stroke="none" 
	d="
M349.250000,501.000000 
	C348.999634,479.309601 348.999268,457.619202 349.244385,435.465271 
	C349.489868,435.001770 349.834381,435.002594 349.834381,435.002594 
	C349.889435,456.689301 349.944458,478.375977 349.999756,500.531342 
	C350.000000,501.000000 349.500000,501.000000 349.250000,501.000000 
z"/>
<path fill="#0E0E0E" opacity="1.000000" stroke="none" 
	d="
M411.250000,501.000000 
	C411.010193,479.643066 411.020386,458.286133 411.282043,436.465027 
	C411.533508,436.000824 411.897308,436.000610 411.897278,436.000610 
	C411.953735,457.355286 412.010193,478.709930 412.033325,500.532288 
	C412.000000,501.000000 411.500000,501.000000 411.250000,501.000000 
z"/>
<path fill="#0E0E0E" opacity="1.000000" stroke="none" 
	d="
M224.250000,501.000000 
	C224.012207,479.976501 224.024414,458.953003 224.307785,437.465088 
	C224.578949,437.000702 224.984192,437.000000 224.984192,437.000000 
	C225.037338,458.023865 225.090485,479.047760 225.071808,500.535828 
	C225.000000,501.000000 224.500000,501.000000 224.250000,501.000000 
z"/>
<path fill="#F8F8F8" opacity="1.000000" stroke="none" 
	d="
M304.857971,203.648209 
	C303.429688,202.321014 302.084412,201.433609 299.829895,199.946411 
	C299.829895,206.027390 299.829895,210.780441 299.829895,215.765533 
	C297.162964,215.765533 294.912750,215.765533 292.144836,215.765533 
	C292.144836,204.339600 292.104248,192.933517 292.222015,181.529068 
	C292.231415,180.617844 293.349365,178.926086 293.926422,178.937149 
	C298.820038,179.031113 303.813751,178.962189 308.536591,180.018707 
	C310.080750,180.364136 311.839905,183.846649 311.916779,185.952301 
	C312.273773,195.731857 312.074738,205.531708 312.074738,215.669128 
	C309.990021,215.669128 307.770447,215.669128 304.940979,215.669128 
	C304.940979,211.941559 304.940979,208.014786 304.857971,203.648209 
M299.736633,191.164413 
	C300.221771,195.417542 302.686340,193.186035 304.562317,192.998734 
	C304.562317,190.557083 304.562317,188.459030 304.562317,186.184845 
	C302.906616,186.184845 301.501038,186.184845 299.734131,186.184845 
	C299.734131,187.692749 299.734131,188.982239 299.736633,191.164413 
z"/>
<path fill="#60E5D8" opacity="1.000000" stroke="none" 
	d="
M97.815826,210.842361 
	C97.737587,212.766510 97.659332,214.218658 97.572380,215.832336 
	C95.125320,215.832336 92.995972,215.832336 90.486526,215.832336 
	C90.486526,203.615143 90.486526,191.402466 90.486526,178.818039 
	C92.597504,178.818039 94.837875,178.818039 97.690689,178.818039 
	C97.690689,183.508804 97.690689,188.226868 97.690689,192.823074 
	C103.364159,194.650162 102.694717,191.053101 102.718971,188.138306 
	C102.743752,185.160919 102.724457,182.183167 102.724457,178.827576 
	C105.174843,178.827576 107.375114,178.827576 109.850983,178.827576 
	C109.850983,191.136063 109.850983,203.352829 109.850983,215.792297 
	C107.582443,215.792297 105.480095,215.792297 102.911697,215.792297 
	C102.911697,211.054291 102.911697,206.315887 102.911697,201.304413 
	C101.048119,201.304413 99.643135,201.304413 97.815804,201.304413 
	C97.815804,204.459839 97.815804,207.415100 97.815826,210.842361 
z"/>
<path fill="#F9F9F9" opacity="1.000000" stroke="none" 
	d="
M318.112671,201.993561 
	C318.113892,196.666214 317.958069,191.829971 318.155640,187.008209 
	C318.406738,180.880722 321.598907,178.382660 328.560699,178.486801 
	C335.206390,178.586197 338.029541,181.070236 338.086090,187.218140 
	C338.170349,196.376907 338.091858,205.537247 338.064545,214.696838 
	C338.063660,214.994644 337.864899,215.291855 337.683807,215.797516 
	C335.504456,215.797516 333.267456,215.797516 330.807556,215.797516 
	C330.807556,210.954239 330.807556,206.307816 330.807556,201.325821 
	C329.218994,201.209900 327.825867,201.108246 325.939758,200.970612 
	C325.939758,205.984406 325.939758,210.719498 325.939758,215.724335 
	C323.226807,215.724335 320.970123,215.724335 318.112610,215.724335 
	C318.112610,211.369629 318.112610,206.930359 318.112671,201.993561 
M326.609253,193.468033 
	C327.997101,192.995636 330.261139,192.850922 330.586426,191.981140 
	C331.221558,190.282913 330.772766,188.179352 330.772766,186.205383 
	C328.811279,186.205383 327.400208,186.205383 325.972412,186.205383 
	C325.972412,188.611557 325.972412,190.743927 326.609253,193.468033 
z"/>
<path fill="#F8F8F8" opacity="1.000000" stroke="none" 
	d="
M343.110535,195.007401 
	C343.111267,190.514587 342.968170,186.511612 343.196716,182.529968 
	C343.269562,181.261154 344.333618,178.977875 344.937286,178.980148 
	C349.837097,178.998535 354.865479,178.916763 359.562103,180.063690 
	C361.168793,180.456070 362.796021,184.207657 362.937622,186.515076 
	C363.375214,193.645462 363.203247,200.821411 363.068939,207.975922 
	C362.975586,212.949387 360.299194,215.892181 355.373810,215.934097 
	C341.002747,216.056412 343.269592,217.558502 343.115936,204.992859 
	C343.077271,201.830856 343.110443,198.667984 343.110535,195.007401 
M350.755951,192.565460 
	C350.755951,197.818237 350.755951,203.071014 350.755951,208.721848 
	C352.802643,208.529083 354.181305,208.399246 355.461945,208.278625 
	C355.461945,200.617691 355.461945,193.398438 355.461945,185.898788 
	C353.712524,186.043594 352.312805,186.159454 350.755951,186.288315 
	C350.755951,188.297394 350.755951,189.943192 350.755951,192.565460 
z"/>
<path fill="#60E5D8" opacity="1.000000" stroke="none" 
	d="
M196.817230,200.972549 
	C196.817245,203.604355 196.817245,205.736801 196.817245,207.888931 
	C200.274261,209.087219 201.789612,208.420120 201.735565,204.801910 
	C201.606750,196.181076 201.694031,187.557037 201.694031,178.694000 
	C204.279160,178.694000 206.370483,178.694000 208.922974,178.694000 
	C208.922974,189.230682 209.217148,199.661728 208.786301,210.062729 
	C208.599304,214.576721 204.110733,216.487305 197.261520,216.000946 
	C192.171417,215.639481 189.276031,212.945862 189.171646,207.707886 
	C188.982651,198.225174 189.118103,188.735977 189.118103,178.848557 
	C191.552719,178.848557 193.786545,178.848557 196.817200,178.848557 
	C196.817200,185.988266 196.817200,193.230728 196.817230,200.972549 
z"/>
<path fill="#60E5D8" opacity="1.000000" stroke="none" 
	d="
M167.338440,215.041443 
	C165.683365,212.151917 163.578842,209.517838 163.283539,206.694519 
	C162.697311,201.089844 163.098083,195.380829 163.109650,189.714966 
	C163.127457,180.995071 165.754471,178.242111 173.830475,178.449005 
	C181.336365,178.641281 183.510193,181.488602 182.922882,190.692947 
	C180.852402,190.692947 178.755096,190.692947 176.233490,190.692947 
	C176.025070,189.553986 175.773514,188.179245 175.443054,186.373276 
	C174.232010,186.247070 172.839874,186.102005 171.116486,185.922424 
	C171.116486,193.481979 171.116486,200.719681 171.116486,208.188110 
	C172.573120,208.188110 173.841721,208.188110 176.266312,208.188110 
	C175.026245,203.316162 173.889008,198.848221 172.604538,193.801804 
	C176.532349,193.801804 179.591995,193.801804 183.048492,193.801804 
	C183.048492,199.054779 183.246948,204.185303 182.985977,209.292328 
	C182.775391,213.413589 179.937912,215.578278 176.076279,215.865417 
	C173.317993,216.070496 170.498993,215.458649 167.338440,215.041443 
z"/>
<path fill="#61E6D9" opacity="1.000000" stroke="none" 
	d="
M116.500000,210.034424 
	C116.289070,201.977371 115.984360,194.317810 116.203697,186.673279 
	C116.376045,180.666367 119.807991,178.268433 126.868065,178.455322 
	C133.312912,178.625931 136.041946,180.991379 136.165787,186.902069 
	C136.301788,193.393982 136.086914,199.893539 136.239456,206.384720 
	C136.349625,211.072708 135.004745,214.631363 130.037842,215.798935 
	C123.446266,217.348419 119.277733,215.629715 116.500000,210.034424 
M123.777878,200.430481 
	C123.777878,203.026184 123.777878,205.621887 123.777878,208.604050 
	C125.793373,208.491043 127.173668,208.413651 128.580597,208.334763 
	C128.580597,200.708481 128.580597,193.498199 128.580597,185.991974 
	C126.868179,186.086624 125.471512,186.163803 123.777901,186.257401 
	C123.777901,190.882370 123.777901,195.167191 123.777878,200.430481 
z"/>
<path fill="#60E5D8" opacity="1.000000" stroke="none" 
	d="
M240.735016,198.021637 
	C240.734955,193.887161 240.734955,190.247650 240.734955,186.308792 
	C238.999710,186.308792 237.627716,186.308792 235.901001,186.308792 
	C235.901001,196.043015 235.901001,205.652267 235.901001,215.635056 
	C233.335815,215.635056 231.097870,215.635056 228.458633,215.635056 
	C228.458633,205.424759 228.081482,195.005829 228.627335,184.635483 
	C228.877670,179.879227 233.052628,178.049377 239.484879,178.466064 
	C244.857910,178.814133 247.887054,181.079361 247.986481,185.664230 
	C248.202240,195.614548 248.053009,205.572784 248.053009,215.768707 
	C245.618851,215.768707 243.528122,215.768707 240.735092,215.768707 
	C240.735092,210.023819 240.735092,204.270218 240.735016,198.021637 
z"/>
<path fill="#F6F6F6" opacity="1.000000" stroke="none" 
	d="
M411.173096,202.289093 
	C413.773102,213.060089 408.027588,218.614792 397.840240,215.701782 
	C393.287170,214.399887 391.700867,211.017639 392.344330,203.634079 
	C394.561218,203.634079 396.806824,203.634079 399.327942,203.634079 
	C399.563141,205.125504 399.786316,206.540497 400.102722,208.546524 
	C401.573151,208.278839 402.915894,208.034393 404.258636,207.789948 
	C403.735718,206.347336 403.537476,204.643616 402.627625,203.512131 
	C400.130096,200.406189 397.235168,197.622757 394.679657,194.559738 
	C391.238098,190.434753 391.136444,184.142609 394.269745,180.824997 
	C396.986450,177.948517 406.546356,177.086472 409.097382,180.291443 
	C411.205475,182.939880 411.743988,186.837601 413.212952,190.818665 
	C409.559753,190.818665 407.443451,190.818665 405.023560,190.818665 
	C404.821808,189.435364 404.615692,188.022278 404.360291,186.271255 
	C403.020996,186.188065 401.611633,186.100525 399.362579,185.960831 
	C401.234467,193.256134 407.813599,196.423538 411.173096,202.289093 
z"/>
<path fill="#F6F6F6" opacity="1.000000" stroke="none" 
	d="
M383.819397,201.016388 
	C381.375854,201.016724 379.403900,201.016724 377.124969,201.016724 
	C377.124969,203.458298 377.124969,205.670624 377.124969,208.374115 
	C380.214447,208.374115 383.293915,208.374115 386.642365,208.374115 
	C386.642365,211.068039 386.642365,213.287994 386.642365,216.003342 
	C381.860687,216.003342 377.061554,216.268906 372.330933,215.817169 
	C371.143890,215.703812 369.289062,213.311905 369.251129,211.925842 
	C368.983063,202.132156 368.961243,192.322952 369.276489,182.532074 
	C369.321045,181.147537 371.506958,178.833710 372.898071,178.675476 
	C377.306671,178.173996 381.808289,178.490143 386.601257,178.490143 
	C386.601257,181.010391 386.601257,183.226593 386.601257,185.850586 
	C383.611542,185.850586 380.527954,185.850586 377.131836,185.850586 
	C377.131836,188.445435 377.131836,190.657028 377.131836,193.362885 
	C380.205566,193.362885 383.277161,193.362885 386.937683,193.362885 
	C385.969879,196.325180 389.512360,199.921234 383.819397,201.016388 
z"/>
<path fill="#424242" opacity="1.000000" stroke="none" 
	d="
M430.116852,228.036133 
	C424.320496,227.878204 418.524170,227.720276 412.366669,227.777985 
	C337.247070,227.993607 262.488647,227.993607 187.730209,227.993607 
	C187.728256,227.324768 187.726303,226.655945 187.724335,225.987106 
	C276.522034,225.987106 365.319763,225.987106 454.591125,226.002228 
	C455.123383,226.442520 455.182007,226.867691 454.698547,227.622650 
	C446.143280,227.980316 438.130066,228.008224 430.116852,228.036133 
z"/>
<path fill="#F4F4F4" opacity="1.000000" stroke="none" 
	d="
M277.979401,178.464233 
	C281.085114,178.464218 283.716614,178.464218 286.592163,178.464218 
	C286.592163,181.025345 286.592163,183.128143 286.592163,185.722427 
	C285.047668,185.863190 283.307465,186.021805 281.199615,186.213913 
	C281.199615,195.890884 281.199615,205.634476 281.199615,215.697754 
	C278.626587,215.697754 276.397400,215.697754 273.716278,215.697754 
	C273.716278,206.110809 273.716278,196.396515 273.716278,186.430374 
	C271.573090,186.177780 269.834717,185.972885 267.939697,185.749527 
	C267.939697,183.424728 267.939697,181.171722 267.939697,178.464233 
	C271.276245,178.464233 274.390717,178.464233 277.979401,178.464233 
z"/>
<path fill="#5EDED2" opacity="1.000000" stroke="none" 
	d="
M147.282654,216.030670 
	C143.850983,216.283401 142.049088,215.334854 142.068604,211.951157 
	C142.131668,201.018433 142.092133,190.085129 142.092133,178.784424 
	C144.591324,178.784424 146.825897,178.784424 149.650528,178.784424 
	C149.650528,188.420624 149.650528,198.100647 149.650528,208.091614 
	C152.609772,208.286774 155.016342,208.445480 157.808228,208.629608 
	C157.808228,210.941574 157.808228,213.167465 157.808228,216.030838 
	C154.602295,216.030838 151.174683,216.030838 147.282654,216.030670 
z"/>
<path fill="#5DDCD0" opacity="1.000000" stroke="none" 
	d="
M215.083374,194.004028 
	C215.083450,188.703323 215.083450,183.901428 215.083450,178.755219 
	C217.653229,178.755219 219.892914,178.755219 222.491150,178.755219 
	C222.491150,191.013779 222.491150,203.212799 222.491150,215.724106 
	C220.222977,215.724106 217.975723,215.724106 215.083313,215.724106 
	C215.083313,208.693939 215.083313,201.598389 215.083374,194.004028 
z"/>
<path fill="#474748" opacity="1.000000" stroke="none" 
	d="
M455.642944,158.075684 
	C456.030090,158.396439 455.900421,158.643204 455.535278,158.950134 
	C366.252167,159.032990 277.161407,159.032990 188.070633,159.032990 
	C188.070526,158.696777 188.070419,158.360580 188.070328,158.024368 
	C277.103302,158.024368 366.136292,158.024368 455.642944,158.075684 
z"/>
<path fill="#394A52" opacity="1.000000" stroke="none" 
	d="
M187.183090,297.068024 
	C187.177658,296.563934 187.172226,296.059875 187.290771,295.195007 
	C228.579575,294.866486 269.744385,294.898712 311.366150,294.919556 
	C311.891052,295.383545 311.958954,295.858917 311.530029,296.630859 
	C309.285187,296.954681 307.537201,296.981903 305.789246,297.009155 
	C300.018402,296.799561 294.247559,296.590027 287.739624,296.651794 
	C253.729401,296.971405 220.456253,297.019714 187.183090,297.068024 
z"/>
<path fill="#3D3D3D" opacity="1.000000" stroke="none" 
	d="
M392.131104,297.026062 
	C386.273010,296.807343 380.414886,296.588654 373.800568,296.663147 
	C358.732788,296.978027 344.421234,296.999725 330.109680,297.021423 
	C330.083160,296.552887 330.056610,296.084351 330.107788,295.269104 
	C357.101501,294.916351 384.017487,294.910278 411.390747,294.895203 
	C411.909637,295.352478 411.971283,295.818848 411.527161,296.619446 
	C404.724640,296.977844 398.427887,297.001953 392.131104,297.026062 
z"/>
<path fill="#266071" opacity="1.000000" stroke="none" 
	d="
M474.662537,213.873611 
	C474.914673,221.618240 474.930634,229.351318 474.633240,237.548004 
	C473.947144,238.016098 473.574341,238.020569 473.201569,238.025055 
	C473.186279,230.226212 473.170990,222.427383 473.326782,214.162003 
	C473.816040,213.702515 474.125519,213.758041 474.662537,213.873611 
z"/>
<path fill="#0E0E0E" opacity="1.000000" stroke="none" 
	d="
M430.071594,228.501083 
	C438.130066,228.008224 446.143280,227.980316 454.633606,227.938995 
	C455.196747,245.640060 455.282806,263.354523 455.376099,281.538330 
	C455.134979,282.007996 454.886627,282.008270 454.270721,282.069275 
	C448.290436,282.130035 442.677643,282.130035 436.302948,282.130035 
	C436.302948,286.354034 436.302948,290.295746 435.785706,294.703430 
	C433.526062,295.088196 431.783691,295.007019 430.041290,294.925812 
	C430.036316,272.939209 430.031311,250.952637 430.071594,228.501083 
z"/>
<path fill="#266071" opacity="1.000000" stroke="none" 
	d="
M474.877930,275.978088 
	C474.897766,305.678436 474.917603,335.378754 474.636597,365.544434 
	C473.967743,366.015991 473.599823,366.022186 473.231873,366.028351 
	C473.175446,336.321014 473.119019,306.613708 473.410431,276.446045 
	C474.131500,275.983185 474.504700,275.980652 474.877930,275.978088 
z"/>
<path fill="#1F526D" opacity="1.000000" stroke="none" 
	d="
M473.161377,366.490234 
	C473.599823,366.022186 473.967743,366.015991 474.610809,366.013458 
	C474.905945,387.682098 474.925964,409.347076 474.683655,431.383820 
	C474.013672,431.509186 473.606018,431.262817 473.198334,431.016449 
	C473.162506,409.661652 473.126678,388.306885 473.161377,366.490234 
z"/>
<path fill="#1F526D" opacity="1.000000" stroke="none" 
	d="
M474.918518,275.512817 
	C474.504700,275.980652 474.131500,275.983185 473.478607,275.980408 
	C473.160309,263.634064 473.121674,251.292969 473.142303,238.488464 
	C473.574341,238.020569 473.947144,238.016098 474.598450,238.016754 
	C474.904327,250.363785 474.931702,262.705688 474.918518,275.512817 
z"/>
<path fill="#266071" opacity="1.000000" stroke="none" 
	d="
M473.144348,431.410583 
	C473.606018,431.262817 474.013672,431.509186 474.639465,431.846558 
	C474.872650,432.413177 474.887787,432.888855 474.865479,433.720917 
	C474.423096,434.307587 474.018097,434.537872 473.404541,434.875000 
	C473.160767,433.922852 473.125549,432.863800 473.144348,431.410583 
z"/>
<path fill="#121212" opacity="1.000000" stroke="none" 
	d="
M26.351831,466.198730 
	C26.036497,464.320801 25.454611,462.210175 26.205305,460.818146 
	C32.717365,448.742859 39.468784,436.796692 46.110340,424.449677 
	C46.071712,424.087280 46.078224,424.085236 46.377953,424.067627 
	C46.765549,423.683411 46.853413,423.316803 46.970104,422.975098 
	C46.998932,423.000000 46.937988,422.953064 47.249146,422.915283 
	C47.788422,422.321228 48.016541,421.764923 48.126251,421.102448 
	C48.007835,420.996246 48.239548,421.212860 48.517410,421.147339 
	C48.911167,420.731506 49.027058,420.381226 49.391457,419.816864 
	C59.760761,409.071136 69.881554,398.539459 80.002350,388.007782 
	C93.999130,377.876923 108.865303,369.307526 126.188934,366.790466 
	C136.161377,365.341492 146.496811,364.501648 156.482910,365.416687 
	C179.496597,367.525391 191.635483,387.012848 184.492722,409.507599 
	C181.130630,420.095734 176.941864,430.432678 172.861923,440.778656 
	C168.110504,452.827362 162.945572,464.713562 158.239624,476.779327 
	C157.082809,479.745270 155.465515,481.269379 152.473145,482.126251 
	C133.730820,487.493134 114.701019,487.835663 95.527702,485.550140 
	C71.599167,482.697845 48.810989,475.697205 26.351831,466.198730 
M59.110867,461.865692 
	C58.503059,460.607300 57.895256,459.348938 57.519630,458.571259 
	C53.548660,462.143921 49.769791,465.543793 45.176807,469.676117 
	C50.823208,471.230530 55.510052,472.520813 60.824703,474.209198 
	C61.813141,474.488007 62.801579,474.766815 64.739433,475.313446 
	C62.573456,470.469330 60.800011,466.503113 59.110867,461.865692 
M123.368477,481.705261 
	C121.495583,476.846344 119.622688,471.987396 117.489769,466.453857 
	C113.673096,472.044312 110.232994,477.083160 106.492317,482.562286 
	C112.878815,482.562286 118.442505,482.562286 124.825668,482.752167 
	C130.027985,482.180817 135.230301,481.609436 140.908188,480.985840 
	C138.866989,476.066132 137.111465,471.834900 134.976410,466.688965 
	C130.984222,472.362976 127.508812,477.302521 123.368477,481.705261 
M76.998474,396.991455 
	C76.998474,396.991455 76.818161,396.821350 76.134087,396.859131 
	C67.044647,404.597931 59.272488,413.495514 51.876030,423.772614 
	C56.580162,423.772614 60.439850,423.772614 64.489731,423.772614 
	C65.661423,418.383331 66.803429,413.130615 67.983536,407.702606 
	C72.059837,408.486481 75.593185,409.165955 79.817978,410.091827 
	C80.746696,410.391815 81.675415,410.691772 82.886047,411.082794 
	C84.675072,404.569366 86.420410,398.214966 88.262192,391.509460 
	C94.098671,394.516632 99.614059,397.358337 105.223190,400.248383 
	C108.900734,393.232727 112.305107,386.738220 115.919273,379.843506 
	C120.452164,385.296722 124.463272,390.122253 128.779709,395.315063 
	C133.102493,388.577911 137.248215,382.116730 141.734344,375.125000 
	C145.297256,382.480682 148.546539,389.188812 151.983337,396.284119 
	C157.206924,389.526062 161.890961,383.466034 167.274094,376.501556 
	C168.277435,384.800201 169.125458,391.814301 170.034882,399.336090 
	C173.971069,396.343048 177.482040,393.673370 180.965790,391.837616 
	C180.345703,396.401184 179.725616,400.964752 179.105515,405.528320 
	C179.615753,405.594757 180.126007,405.661194 180.636246,405.727631 
	C183.299530,401.119781 183.391953,396.153259 181.756317,390.207550 
	C178.902023,378.809753 171.294800,371.784607 160.122559,370.047119 
	C128.660919,365.154144 101.397301,374.714783 77.307610,395.863403 
	C77.144630,396.183777 76.981651,396.504150 76.998474,396.991455 
M115.567657,462.082672 
	C116.452393,461.079803 117.337135,460.076965 118.628021,458.613739 
	C120.810188,463.938232 122.650284,468.428070 124.805054,473.685760 
	C128.785782,468.529144 132.132156,464.194275 135.972778,459.219147 
	C138.207474,464.103149 139.960007,467.933380 142.034073,472.466339 
	C145.642227,467.697510 148.825119,463.490753 152.485611,458.652740 
	C153.715973,463.055328 154.629623,466.324646 155.787735,470.468750 
	C156.812500,468.741364 157.489563,467.869995 157.888794,466.885864 
	C162.447601,455.648315 166.962753,444.393066 171.492203,433.143646 
	C176.191559,421.472168 175.683655,420.199310 164.150070,415.064209 
	C163.097092,414.595367 161.973206,414.258423 160.853928,413.970215 
	C152.514908,411.822723 152.771973,411.891235 150.853439,420.212708 
	C149.578506,425.742554 147.431793,431.071411 145.675293,436.490234 
	C145.307739,436.299072 144.940186,436.107880 144.572632,435.916718 
	C143.177811,428.853088 141.782974,421.789459 140.388153,414.725830 
	C139.914886,414.772217 139.441620,414.818634 138.968338,414.865051 
	C139.857895,426.113129 136.761230,436.370819 131.833481,447.144409 
	C129.935287,437.969513 128.247086,429.809601 126.558876,421.649658 
	C122.125008,446.721466 121.459290,449.271759 117.617905,452.770233 
	C116.113998,445.512756 114.567314,438.048859 112.983788,430.407227 
	C106.261665,434.483673 103.301765,439.036560 106.729492,446.135040 
	C107.767998,448.285706 107.579384,451.007172 108.093452,453.437439 
	C109.079643,458.099731 110.166443,462.740753 111.429512,468.360565 
	C113.170082,465.724396 114.173561,464.204559 115.567657,462.082672 
M95.917061,481.697266 
	C99.266785,481.955505 102.616501,482.213745 106.755928,482.532867 
	C103.818207,476.133331 101.306816,470.662506 98.624977,464.820374 
	C94.329201,469.771057 90.371399,474.332214 86.069328,479.290131 
	C83.126610,473.246002 80.462753,467.774628 77.579659,461.852966 
	C73.280228,466.452576 69.212578,470.804199 64.356201,475.999634 
	C75.479012,478.009216 85.247643,479.774109 95.917061,481.697266 
M44.250343,468.804199 
	C42.960754,463.830780 41.671165,458.857330 40.112064,452.844513 
	C36.381161,456.848694 33.463768,459.979767 30.156275,463.529510 
	C35.216770,465.512451 39.365360,467.138062 44.250343,468.804199 
M146.964600,479.604004 
	C148.938202,478.970337 150.911789,478.336700 152.881760,477.704193 
	C152.095490,474.283264 151.427216,471.375671 150.573700,467.662170 
	C147.313080,472.178192 144.583496,475.958740 141.350174,480.436981 
	C143.621002,480.153595 144.902008,479.993744 146.964600,479.604004 
M47.490223,429.959351 
	C45.929668,432.408325 44.369114,434.857330 42.509518,437.775604 
	C45.181740,437.775604 47.077137,437.775604 49.380840,437.775604 
	C49.947208,433.917206 50.489269,430.224426 51.031334,426.531647 
	C50.743118,426.449371 50.454906,426.367126 50.166695,426.284851 
	C49.412777,427.307373 48.658859,428.329865 47.490223,429.959351 
z"/>
<path fill="#FBFCFC" opacity="1.000000" stroke="none" 
	d="
M80.002953,387.599304 
	C69.881554,398.539459 59.760761,409.071136 49.102745,419.885468 
	C48.456867,420.516357 48.348206,420.864624 48.239548,421.212860 
	C48.239548,421.212860 48.007835,420.996246 47.792412,421.116333 
	C47.363987,421.808655 47.150990,422.380859 46.937988,422.953064 
	C46.937988,422.953064 46.998932,423.000000 46.671379,423.011414 
	C46.255287,423.376984 46.166752,423.731110 46.078220,424.085236 
	C46.078224,424.085236 46.071712,424.087280 46.083496,424.095825 
	C42.055779,428.065887 37.950882,431.963623 33.999912,436.011536 
	C31.394964,438.680420 29.011505,441.565521 26.528875,444.353790 
	C26.083794,444.045135 25.638712,443.736450 25.193630,443.427795 
	C27.935898,438.942780 30.593315,434.402802 33.448772,429.991058 
	C35.522781,426.786652 37.305763,423.051086 40.185814,420.778015 
	C47.615757,414.913971 48.888245,407.463715 47.984375,398.753296 
	C47.546227,394.530914 48.287403,390.186188 48.549473,384.762482 
	C42.294701,393.844208 36.498833,402.259613 30.702961,410.675018 
	C30.408258,410.523743 30.113554,410.372437 29.818851,410.221161 
	C31.050865,407.401581 32.032204,404.437988 33.556000,401.786072 
	C42.737587,385.806793 52.047153,369.901031 61.301903,353.963745 
	C62.203857,352.410492 63.024124,350.809845 63.671978,348.893311 
	C63.461651,348.555450 63.517384,348.468872 63.857857,348.627502 
	C64.509338,348.239258 64.820351,347.692383 65.131348,347.145477 
	C65.131348,347.145477 65.050331,347.028534 65.373199,347.047913 
	C65.833817,346.752472 65.971573,346.437683 66.109329,346.122894 
	C69.458534,342.980865 72.807747,339.838837 76.172470,336.682251 
	C76.706192,337.257294 77.099083,337.563293 77.055450,337.650208 
	C71.125702,349.465118 74.588867,361.203888 77.337128,372.936981 
	C78.201523,376.627350 79.199554,380.286469 80.124695,384.351685 
	C80.076508,385.559296 80.040031,386.375092 80.002953,387.599304 
z"/>
<path fill="#87B9BA" opacity="1.000000" stroke="none" 
	d="
M139.128326,341.775696 
	C138.909302,339.427094 139.038040,337.084839 139.615570,334.237854 
	C148.060211,330.345856 156.161331,327.524384 165.067963,327.816956 
	C166.227753,327.855042 168.421204,326.320679 168.467270,325.428497 
	C168.731140,320.317505 168.924606,315.125641 168.285370,310.069489 
	C167.766907,305.968781 164.558853,303.968414 160.355377,303.935791 
	C158.106384,303.918304 155.857162,303.932678 152.013718,303.932678 
	C154.742401,301.843109 156.167801,300.561920 157.767700,299.559204 
	C164.716156,295.204193 171.482513,297.242279 178.191971,300.291443 
	C176.630707,324.838684 178.516754,348.947998 187.254120,372.582184 
	C183.506500,368.367126 180.366196,363.152496 176.042862,359.247772 
	C165.690643,349.897827 153.076935,349.799530 140.332397,352.516510 
	C131.000183,354.505981 121.819595,357.206696 111.945457,358.551422 
	C122.346565,352.848663 132.747665,347.145874 143.432693,341.287445 
	C141.963577,341.471100 140.719849,341.626556 139.128326,341.775696 
z"/>
<path fill="#1D1E1E" opacity="1.000000" stroke="none" 
	d="
M107.769394,331.860779 
	C105.481346,332.529205 103.592552,333.193634 101.743187,333.844177 
	C104.564301,323.456543 112.880280,318.109680 120.518242,321.084381 
	C119.073448,322.680420 117.624725,324.640686 115.820267,326.185425 
	C113.414490,328.244995 110.732170,329.981506 107.769394,331.860779 
z"/>
<path fill="#87B9BA" opacity="1.000000" stroke="none" 
	d="
M135.961349,336.940552 
	C136.908691,338.340546 137.482239,339.747040 138.123383,341.479248 
	C135.082916,342.162537 131.974838,342.520111 128.866776,342.877655 
	C128.677490,342.582184 128.488205,342.286713 128.298920,341.991241 
	C130.728470,340.309845 133.158020,338.628479 135.961349,336.940552 
z"/>
<path fill="#89BCBD" opacity="1.000000" stroke="none" 
	d="
M58.423035,487.378723 
	C58.661640,487.369568 58.745838,487.457001 58.830036,487.544403 
	C58.642899,487.521362 58.455761,487.498352 58.423035,487.378723 
z"/>
<path fill="#87B9BA" opacity="1.000000" stroke="none" 
	d="
M110.670135,360.620575 
	C110.447151,360.637421 110.365387,360.558350 110.283615,360.479279 
	C110.459534,360.494385 110.635445,360.509521 110.670135,360.620575 
z"/>
<path fill="#0F0F0F" opacity="1.000000" stroke="none" 
	d="
M392.074524,297.490662 
	C398.427887,297.001953 404.724640,296.977844 411.485382,296.969849 
	C411.994080,318.333618 412.045563,339.681244 412.068298,361.028931 
	C412.069794,362.445251 411.852539,363.861847 411.338715,365.639160 
	C404.692078,365.999786 398.443817,365.999542 392.195526,365.999298 
	C392.136353,343.317932 392.077148,320.636597 392.074524,297.490662 
z"/>
<path fill="#0F0F0F" opacity="1.000000" stroke="none" 
	d="
M392.110901,366.461243 
	C398.443817,365.999542 404.692078,365.999786 411.398071,366.000000 
	C411.891998,388.032410 411.927460,410.064819 411.966766,432.097229 
	C411.968536,433.087769 412.004639,434.078217 411.961029,435.534668 
	C411.897308,436.000610 411.533508,436.000824 411.351624,436.001099 
	C411.169739,423.886810 411.169739,411.772278 411.169739,399.329437 
	C405.069427,399.329437 399.503082,399.329437 393.039093,399.329437 
	C393.039093,409.936310 393.039093,420.513519 392.913269,431.544586 
	C392.787445,431.998444 392.516907,431.998260 392.381622,431.998749 
	C392.172974,410.307220 392.099609,388.615234 392.110901,366.461243 
z"/>
<path fill="#101010" opacity="1.000000" stroke="none" 
	d="
M435.988464,365.007904 
	C436.119293,374.780762 436.333008,384.553345 436.360291,394.326508 
	C436.395447,406.933777 436.281372,419.541473 435.728760,432.595703 
	C433.517395,432.955383 431.808807,432.868317 430.100250,432.781281 
	C430.104462,409.830414 430.108643,386.879547 430.584778,363.463318 
	C432.707550,362.998627 434.358307,362.999329 436.009094,363.000000 
	C436.046875,363.170746 436.084656,363.341461 435.746552,363.792389 
	C435.576630,364.384369 435.782562,364.696136 435.988464,365.007904 
z"/>
<path fill="#0F0F0F" opacity="1.000000" stroke="none" 
	d="
M436.160736,362.552155 
	C434.358307,362.999329 432.707550,362.998627 430.646057,362.998260 
	C430.172394,341.023010 430.109497,319.047424 430.483185,296.529907 
	C432.650848,295.950928 434.381958,295.913849 436.113037,295.876770 
	C436.179474,317.952606 436.245941,340.028442 436.160736,362.552155 
z"/>
<path fill="#437F80" opacity="1.000000" stroke="none" 
	d="
M430.049469,433.089386 
	C431.808807,432.868317 433.517395,432.955383 435.655762,433.065796 
	C436.085541,433.089172 436.295776,433.428253 436.229645,433.616394 
	C434.403595,433.820221 432.643677,433.835938 430.453125,433.936584 
	C430.014587,433.813538 430.006653,433.605530 430.049469,433.089386 
z"/>
<path fill="#437F80" opacity="1.000000" stroke="none" 
	d="
M436.205811,295.703491 
	C434.381958,295.913849 432.650848,295.950928 430.496429,296.071045 
	C430.047089,295.949951 430.021088,295.745850 430.018188,295.233765 
	C431.783691,295.007019 433.526062,295.088196 435.706757,295.168854 
	C436.145050,295.168335 436.298584,295.530182 436.205811,295.703491 
z"/>
<path fill="#0E0E0E" opacity="1.000000" stroke="none" 
	d="
M330.048279,297.485748 
	C344.421234,296.999725 358.732788,296.978027 373.511139,296.975861 
	C374.004913,318.691010 374.031860,340.386597 373.546875,362.539154 
	C371.429047,362.995361 369.823151,362.994659 368.217285,362.993958 
	C368.135437,353.874390 367.760956,344.744232 368.091034,335.639648 
	C368.264771,330.848053 366.580261,329.540985 362.136230,329.933105 
	C358.377869,330.264740 354.567017,330.001465 349.957855,330.001465 
	C349.957855,340.962921 349.957855,351.508575 349.422424,362.518311 
	C342.650208,362.983765 336.413452,362.985168 330.176697,362.986542 
	C330.113434,341.307709 330.050171,319.628906 330.048279,297.485748 
z"/>
<path fill="#101010" opacity="1.000000" stroke="none" 
	d="
M305.907928,432.006653 
	C305.888000,409.984741 305.868103,387.962799 306.283508,365.444824 
	C308.211121,364.636902 309.703430,364.325012 311.195740,364.013153 
	C311.464783,365.765717 311.963593,367.517761 311.967834,369.270966 
	C312.017548,389.854279 311.993073,410.437805 311.510315,431.527802 
	C309.324249,432.025085 307.616089,432.015869 305.907928,432.006653 
z"/>
<path fill="#0F0F0F" opacity="1.000000" stroke="none" 
	d="
M305.789124,297.477325 
	C307.537201,296.981903 309.285187,296.954681 311.464111,296.985779 
	C311.926239,318.705780 311.957397,340.367493 311.516846,362.554443 
	C309.316437,363.060608 307.587738,363.041504 305.859070,363.022369 
	C305.835724,341.330078 305.812347,319.637787 305.789124,297.477325 
z"/>
<path fill="#141A1A" opacity="1.000000" stroke="none" 
	d="
M330.131317,363.454407 
	C336.413452,362.985168 342.650208,362.983765 349.340698,362.978943 
	C349.825867,363.735260 349.857300,364.495056 349.685425,365.633118 
	C349.482178,366.011414 349.138947,366.010101 349.138947,366.010101 
	C348.101013,365.383728 347.083557,364.260223 346.021606,364.216492 
	C341.257477,364.020172 336.480713,364.130981 330.827911,364.130981 
	C330.827911,387.481873 330.827911,410.285797 330.773987,433.558350 
	C330.720032,434.027008 330.483612,434.036407 330.365662,434.027466 
	C330.193787,410.653137 330.139862,387.287689 330.131317,363.454407 
z"/>
<path fill="#394A52" opacity="1.000000" stroke="none" 
	d="
M305.729736,432.172546 
	C307.616089,432.015869 309.324249,432.025085 311.455933,431.990234 
	C311.911713,432.420532 311.943970,432.894928 311.912537,433.722473 
	C310.172852,434.053925 308.496918,434.032196 306.400757,434.016388 
	C305.837524,433.461029 305.694519,432.899750 305.729736,432.172546 
z"/>
<path fill="#394A52" opacity="1.000000" stroke="none" 
	d="
M305.684937,363.184448 
	C307.587738,363.041504 309.316437,363.060608 311.471680,363.018494 
	C311.829895,363.265472 311.761536,363.573730 311.444458,363.947571 
	C309.703430,364.325012 308.211121,364.636902 306.331757,364.978607 
	C305.800079,364.454468 305.655426,363.900513 305.684937,363.184448 
z"/>
<path fill="#FBFCFC" opacity="1.000000" stroke="none" 
	d="
M178.305054,299.928864 
	C171.482513,297.242279 164.716156,295.204193 157.767700,299.559204 
	C156.167801,300.561920 154.742401,301.843109 152.013718,303.932678 
	C155.857162,303.932678 158.106384,303.918304 160.355377,303.935791 
	C164.558853,303.968414 167.766907,305.968781 168.285370,310.069489 
	C168.924606,315.125641 168.731140,320.317505 168.467270,325.428497 
	C168.421204,326.320679 166.227753,327.855042 165.067963,327.816956 
	C156.161331,327.524384 148.060211,330.345856 139.730286,333.809448 
	C140.401276,323.326721 141.365082,312.812714 145.679123,302.855042 
	C147.076721,299.629089 147.251175,295.713226 147.288635,292.105713 
	C147.322189,288.874207 148.750916,287.480652 151.454727,286.284637 
	C163.117828,281.125580 171.677704,282.714233 176.628799,291.598145 
	C177.899597,293.878357 177.857224,296.890442 178.305054,299.928864 
z"/>
<path fill="#61E8DB" opacity="1.000000" stroke="none" 
	d="
M130.527802,293.192749 
	C117.990715,301.448425 105.796509,309.511078 92.633476,318.214294 
	C92.894562,315.129272 92.528137,312.440094 93.419228,310.266449 
	C95.936279,304.126465 98.947624,298.187592 101.822632,292.197510 
	C102.240097,291.327759 102.813675,290.345306 103.592552,289.865356 
	C112.469551,284.395081 121.400497,279.012360 130.126236,273.721893 
	C131.268707,279.160706 132.505219,284.061951 133.192932,289.039093 
	C133.357422,290.229614 131.693619,291.672760 130.527802,293.192749 
z"/>
<path fill="#0E3646" opacity="1.000000" stroke="none" 
	d="
M157.555389,259.962341 
	C161.686508,258.647522 165.754898,256.588745 169.966965,256.233521 
	C173.932602,255.899109 176.483017,259.085205 177.501297,263.003967 
	C179.364319,270.173584 181.438080,277.338043 178.518036,284.546448 
	C175.027771,272.958710 169.698502,269.660431 159.041534,272.563721 
	C156.826477,273.167175 154.654297,273.928009 152.299622,274.391663 
	C152.016266,274.026764 151.895630,273.886566 151.945328,273.456085 
	C155.221832,270.917755 158.328003,268.669647 161.434174,266.421570 
	C161.331741,266.172516 161.229309,265.923462 161.126862,265.674408 
	C158.174988,266.406189 155.223114,267.138000 151.598389,268.036591 
	C153.311813,265.283569 154.665283,263.108917 156.018738,260.934235 
	C156.018723,260.934235 156.014359,261.017365 156.307098,260.968903 
	C156.918365,260.601074 157.236877,260.281708 157.555389,259.962341 
z"/>
<path fill="#5FE3D7" opacity="1.000000" stroke="none" 
	d="
M155.677139,260.721008 
	C154.665283,263.108917 153.311813,265.283569 151.598389,268.036591 
	C155.223114,267.138000 158.174988,266.406189 161.126862,265.674408 
	C161.229309,265.923462 161.331741,266.172516 161.434174,266.421570 
	C158.328003,268.669647 155.221832,270.917755 151.650116,273.514343 
	C150.923019,274.130585 150.661453,274.398285 150.399902,274.666016 
	C151.087387,274.649445 151.774872,274.632904 152.462357,274.616333 
	C154.654297,273.928009 156.826477,273.167175 159.041534,272.563721 
	C169.698502,269.660431 175.027771,272.958710 178.145813,284.673218 
	C177.843567,285.218597 177.233795,285.610962 177.141617,285.513580 
	C169.362045,277.292175 160.409149,278.328186 151.098709,282.165680 
	C149.580811,282.791290 148.095428,283.495758 146.644684,284.141693 
	C140.197906,277.891357 145.062820,264.865143 155.677139,260.721008 
z"/>
<path fill="#0B3040" opacity="1.000000" stroke="none" 
	d="
M88.909286,317.173737 
	C88.630165,321.732727 88.803673,326.037964 87.757271,330.022827 
	C85.328453,339.272095 82.310608,348.366638 79.531532,357.523926 
	C79.014542,357.490814 78.497543,357.457703 77.980545,357.424591 
	C78.202538,353.514587 78.033867,349.529419 78.766853,345.717682 
	C79.382568,342.515778 80.795082,339.385315 82.303856,336.454315 
	C85.234207,330.761719 85.632484,325.211975 82.803436,319.348694 
	C82.175217,318.046692 82.323296,316.115662 82.710556,314.629730 
	C83.587120,311.266235 85.139381,308.064270 85.859131,304.678070 
	C86.847206,300.029449 89.892670,297.754456 94.848274,295.874023 
	C92.715508,301.216461 90.664375,305.822235 89.081375,310.583588 
	C88.454506,312.469116 88.867950,314.700500 88.909286,317.173737 
z"/>
<path fill="#0B3040" opacity="1.000000" stroke="none" 
	d="
M142.191971,299.971252 
	C140.533600,305.063629 138.972031,309.743958 137.410461,314.424255 
	C136.974182,314.406616 136.537903,314.388977 136.101608,314.371307 
	C136.259262,311.839752 136.122772,309.247772 136.627930,306.787537 
	C138.368149,298.312256 138.977768,290.130127 135.594162,281.679382 
	C133.223831,275.759338 136.280563,270.171295 141.890152,268.203156 
	C141.039032,271.023895 139.993179,273.430115 139.655334,275.931946 
	C139.364639,278.084503 139.072113,280.944794 140.186798,282.452026 
	C144.221939,287.908295 143.278915,293.662720 142.191971,299.971252 
z"/>
<path fill="#86B9BA" opacity="1.000000" stroke="none" 
	d="
M64.851509,347.136414 
	C64.820351,347.692383 64.509338,348.239258 63.903130,348.602997 
	C63.929173,347.989014 64.250420,347.558197 64.851509,347.136414 
z"/>
<path fill="#0D3546" opacity="1.000000" stroke="none" 
	d="
M29.752291,335.233459 
	C29.947367,335.679108 29.871096,336.368134 29.568810,337.326294 
	C29.388842,336.889191 29.434893,336.183014 29.752291,335.233459 
z"/>
<path fill="#86B9BA" opacity="1.000000" stroke="none" 
	d="
M65.836121,346.152100 
	C65.971573,346.437683 65.833817,346.752472 65.427826,347.093445 
	C65.294029,346.806885 65.428474,346.494110 65.836121,346.152100 
z"/>
<path fill="#5FE3D7" opacity="1.000000" stroke="none" 
	d="
M157.157257,259.962524 
	C157.236877,260.281708 156.918365,260.601074 156.265503,260.970032 
	C156.207153,260.667297 156.483154,260.315002 157.157257,259.962524 
z"/>
<path fill="#437F80" opacity="1.000000" stroke="none" 
	d="
M436.209961,364.950867 
	C435.782562,364.696136 435.576630,364.384369 435.635162,364.029846 
	C436.076904,364.289307 436.254181,364.591583 436.209961,364.950867 
z"/>
<path fill="#101010" opacity="1.000000" stroke="none" 
	d="
M368.152954,363.459381 
	C369.823151,362.994659 371.429047,362.995361 373.437134,362.996216 
	C373.926025,384.361633 374.019226,405.726898 374.088776,427.092255 
	C374.095276,429.085602 373.952057,431.079437 373.816040,433.539215 
	C372.203308,434.006775 370.652924,434.008118 368.717255,434.009705 
	C368.210083,419.100250 368.050903,404.190735 367.980896,389.280823 
	C367.941254,380.829163 368.047882,372.376831 368.152954,363.459381 
z"/>
<path fill="#0F0F0F" opacity="1.000000" stroke="none" 
	d="
M187.120972,297.529175 
	C220.456253,297.019714 253.729401,296.971405 287.462708,296.977539 
	C287.924805,318.992401 287.926727,340.952820 287.407776,363.390137 
	C255.977402,363.860748 225.067917,363.854431 194.158447,363.848145 
	C186.950577,346.723389 185.936325,328.696960 186.430801,310.461151 
	C186.543594,306.301575 186.844513,302.147125 187.120972,297.529175 
z"/>
<path fill="#0F0F0F" opacity="1.000000" stroke="none" 
	d="
M225.059937,436.534851 
	C224.984192,437.000000 224.578949,437.000702 224.376343,437.001038 
	C224.173721,431.387787 224.173721,425.774170 224.173721,419.338623 
	C218.795944,419.338623 213.876404,419.157990 208.991547,419.489044 
	C207.998718,419.556335 206.520676,421.459900 206.338989,422.677094 
	C205.927200,425.435730 206.183731,428.294128 205.620239,431.574280 
	C199.736084,432.014465 194.400192,431.992371 189.064285,431.970245 
	C194.951187,418.686493 199.574020,405.002899 198.520111,390.273682 
	C197.933456,382.074860 195.907181,373.979065 194.975616,365.446625 
	C226.222260,365.081238 257.022949,365.106018 287.823669,365.130798 
	C287.872559,387.100037 287.921417,409.069244 287.461182,431.527863 
	C280.626190,432.018402 274.300293,432.019562 267.974396,432.020721 
	C267.579834,427.982483 267.185272,423.944244 266.790710,419.906006 
	C261.400696,419.654724 256.010651,419.403473 249.960815,419.121460 
	C249.960815,423.593994 249.960815,427.343842 249.855255,431.546600 
	C247.862503,431.998932 245.975327,431.998352 243.685638,431.998230 
	C243.190903,416.192780 243.097488,400.386841 243.007950,384.580872 
	C242.996872,382.625793 243.006424,380.670593 243.006424,378.089905 
	C237.730576,378.089905 232.935333,377.838074 228.203842,378.275513 
	C227.088272,378.378632 225.333115,380.793518 225.317001,382.161926 
	C225.105301,400.129395 225.153030,418.099945 225.059937,436.534851 
z"/>
<path fill="#4A4C4B" opacity="1.000000" stroke="none" 
	d="
M287.857361,364.801727 
	C257.022949,365.106018 226.222260,365.081238 194.910339,365.037109 
	C194.160782,364.823151 194.045929,364.571960 194.106522,364.056183 
	C225.067917,363.854431 255.977402,363.860748 287.339630,363.842773 
	C287.825256,364.036530 287.858154,364.254608 287.857361,364.801727 
z"/>
<path fill="#424242" opacity="1.000000" stroke="none" 
	d="
M267.897217,432.351105 
	C274.300293,432.019562 280.626190,432.018402 287.409790,431.991821 
	C287.889313,432.437988 287.911194,432.909576 287.884033,433.733368 
	C281.541992,434.065826 275.249054,434.046051 268.489136,434.022217 
	C267.954834,433.572571 267.887451,433.127045 267.897217,432.351105 
z"/>
<path fill="#FAFBFB" opacity="1.000000" stroke="none" 
	d="
M25.997993,493.001709 
	C25.785572,492.875641 25.575285,492.747833 25.364998,492.620056 
	C25.567303,492.613708 25.769609,492.607361 25.988697,492.797516 
	C26.005476,492.994019 26.000132,492.999969 25.997993,493.001709 
z"/>
<path fill="#100F0F" opacity="1.000000" stroke="none" 
	d="
M349.065918,366.473083 
	C349.138947,366.010101 349.482178,366.011414 349.653748,366.012695 
	C349.839661,388.697418 349.853973,411.380798 349.851349,434.533386 
	C349.834381,435.002594 349.489868,435.001770 349.317596,435.001831 
	C349.094513,412.313263 349.043671,389.624695 349.065918,366.473083 
z"/>
<path fill="#424242" opacity="1.000000" stroke="none" 
	d="
M188.870087,432.192719 
	C194.400192,431.992371 199.736084,432.014465 205.539886,432.029297 
	C206.036179,432.469482 206.064560,432.916962 206.028839,433.697021 
	C200.317368,434.036041 194.669983,434.042450 188.561081,434.057373 
	C188.291672,433.515625 188.483780,432.965424 188.870087,432.192719 
z"/>
<path fill="#101212" opacity="1.000000" stroke="none" 
	d="
M51.777332,347.877563 
	C47.679260,351.195099 43.547745,353.258484 38.750381,350.537415 
	C33.533794,347.578552 32.296894,342.489288 31.966158,336.487030 
	C42.908207,333.747437 53.721252,331.040131 64.534302,328.332825 
	C64.952271,328.807312 65.370247,329.281769 65.788216,329.756226 
	C61.210129,335.718292 56.632042,341.680328 51.777332,347.877563 
z"/>
<path fill="#0D3546" opacity="1.000000" stroke="none" 
	d="
M12.670742,383.558350 
	C12.890416,383.522278 13.265381,383.710266 13.417933,384.040833 
	C13.072358,384.049744 12.949195,383.916077 12.670742,383.558350 
z"/>
<path fill="#61E6DA" opacity="1.000000" stroke="none" 
	d="
M6.050257,386.046936 
	C5.677804,386.424835 5.124225,386.596558 4.570647,386.768250 
	C4.722730,386.427734 4.874813,386.087189 5.262300,385.591583 
	C5.621514,385.571259 5.745323,385.705994 6.050257,386.046936 
z"/>
<path fill="#292929" opacity="1.000000" stroke="none" 
	d="
M299.735382,190.718079 
	C299.734131,188.982239 299.734131,187.692749 299.734131,186.184845 
	C301.501038,186.184845 302.906616,186.184845 304.562317,186.184845 
	C304.562317,188.459030 304.562317,190.557083 304.562317,192.998734 
	C302.686340,193.186035 300.221771,195.417542 299.735382,190.718079 
z"/>
<path fill="#292929" opacity="1.000000" stroke="none" 
	d="
M326.290833,193.172165 
	C325.972412,190.743927 325.972412,188.611557 325.972412,186.205383 
	C327.400208,186.205383 328.811279,186.205383 330.772766,186.205383 
	C330.772766,188.179352 331.221558,190.282913 330.586426,191.981140 
	C330.261139,192.850922 327.997101,192.995636 326.290833,193.172165 
z"/>
<path fill="#212121" opacity="1.000000" stroke="none" 
	d="
M350.755951,192.077209 
	C350.755951,189.943192 350.755951,188.297394 350.755951,186.288315 
	C352.312805,186.159454 353.712524,186.043594 355.461945,185.898788 
	C355.461945,193.398438 355.461945,200.617691 355.461945,208.278625 
	C354.181305,208.399246 352.802643,208.529083 350.755951,208.721848 
	C350.755951,203.071014 350.755951,197.818237 350.755951,192.077209 
z"/>
<path fill="#141A1A" opacity="1.000000" stroke="none" 
	d="
M123.777893,199.941254 
	C123.777901,195.167191 123.777901,190.882370 123.777901,186.257401 
	C125.471512,186.163803 126.868179,186.086624 128.580597,185.991974 
	C128.580597,193.498199 128.580597,200.708481 128.580597,208.334763 
	C127.173668,208.413651 125.793373,208.491043 123.777878,208.604050 
	C123.777878,205.621887 123.777878,203.026184 123.777893,199.941254 
z"/>
<path fill="#0B3142" opacity="1.000000" stroke="none" 
	d="
M115.372345,462.383728 
	C114.173561,464.204559 113.170082,465.724396 111.429512,468.360565 
	C110.166443,462.740753 109.079643,458.099731 108.093452,453.437439 
	C107.579384,451.007172 107.767998,448.285706 106.729492,446.135040 
	C103.301765,439.036560 106.261665,434.483673 112.983788,430.407227 
	C114.567314,438.048859 116.113998,445.512756 117.617905,452.770233 
	C121.459290,449.271759 122.125008,446.721466 126.558876,421.649658 
	C128.247086,429.809601 129.935287,437.969513 131.833481,447.144409 
	C136.761230,436.370819 139.857895,426.113129 138.968338,414.865051 
	C139.441620,414.818634 139.914886,414.772217 140.388153,414.725830 
	C141.782974,421.789459 143.177811,428.853088 144.572632,435.916718 
	C144.940186,436.107880 145.307739,436.299072 145.675293,436.490234 
	C147.431793,431.071411 149.578506,425.742554 150.853439,420.212708 
	C152.771973,411.891235 152.514908,411.822723 160.853928,413.970215 
	C161.973206,414.258423 163.097092,414.595367 164.150070,415.064209 
	C175.683655,420.199310 176.191559,421.472168 171.492203,433.143646 
	C166.962753,444.393066 162.447601,455.648315 157.888794,466.885864 
	C157.489563,467.869995 156.812500,468.741364 155.787735,470.468750 
	C154.629623,466.324646 153.715973,463.055328 152.485611,458.652740 
	C148.825119,463.490753 145.642227,467.697510 142.034073,472.466339 
	C139.960007,467.933380 138.207474,464.103149 135.972778,459.219147 
	C132.132156,464.194275 128.785782,468.529144 124.805054,473.685760 
	C122.650284,468.428070 120.810188,463.938232 118.628021,458.613739 
	C117.337135,460.076965 116.452393,461.079803 115.372345,462.383728 
z"/>
<path fill="#F9F9F9" opacity="1.000000" stroke="none" 
	d="
M180.993027,391.003662 
	C177.482040,393.673370 173.971069,396.343048 170.034882,399.336090 
	C169.125458,391.814301 168.277435,384.800201 167.274094,376.501556 
	C161.890961,383.466034 157.206924,389.526062 151.983337,396.284119 
	C148.546539,389.188812 145.297256,382.480682 141.734344,375.125000 
	C137.248215,382.116730 133.102493,388.577911 128.779709,395.315063 
	C124.463272,390.122253 120.452164,385.296722 115.919273,379.843506 
	C112.305107,386.738220 108.900734,393.232727 105.223190,400.248383 
	C99.614059,397.358337 94.098671,394.516632 88.262192,391.509460 
	C86.420410,398.214966 84.675072,404.569366 82.886047,411.082794 
	C81.675415,410.691772 80.746696,410.391815 79.284561,409.673950 
	C73.668404,407.157410 72.785889,403.975739 76.117805,399.541382 
	C76.637466,398.849762 76.598694,397.738525 76.818161,396.821350 
	C76.818161,396.821350 76.998474,396.991455 77.216675,396.914154 
	C77.583237,396.476746 77.731613,396.116669 77.879974,395.756561 
	C101.397301,374.714783 128.660919,365.154144 160.122559,370.047119 
	C171.294800,371.784607 178.902023,378.809753 181.533112,390.511353 
	C181.309921,390.815186 180.993027,391.003662 180.993027,391.003662 
z"/>
<path fill="#F6F6F6" opacity="1.000000" stroke="none" 
	d="
M95.466667,481.618134 
	C85.247643,479.774109 75.479012,478.009216 64.356201,475.999634 
	C69.212578,470.804199 73.280228,466.452576 77.579659,461.852966 
	C80.462753,467.774628 83.126610,473.246002 86.069328,479.290131 
	C90.371399,474.332214 94.329201,469.771057 98.624977,464.820374 
	C101.306816,470.662506 103.818207,476.133331 106.755928,482.532867 
	C102.616501,482.213745 99.266785,481.955505 95.466667,481.618134 
z"/>
<path fill="#81B2B3" opacity="1.000000" stroke="none" 
	d="
M76.476120,396.840240 
	C76.598694,397.738525 76.637466,398.849762 76.117805,399.541382 
	C72.785889,403.975739 73.668404,407.157410 78.938843,409.550720 
	C75.593185,409.165955 72.059837,408.486481 67.983536,407.702606 
	C66.803429,413.130615 65.661423,418.383331 64.489731,423.772614 
	C60.439850,423.772614 56.580162,423.772614 51.876030,423.772614 
	C59.272488,413.495514 67.044647,404.597931 76.476120,396.840240 
z"/>
<path fill="#EFEFEF" opacity="1.000000" stroke="none" 
	d="
M124.006203,482.562286 
	C118.442505,482.562286 112.878815,482.562286 106.492317,482.562286 
	C110.232994,477.083160 113.673096,472.044312 117.489769,466.453857 
	C119.622688,471.987396 121.495583,476.846344 123.715363,482.027100 
	C124.062248,482.348969 124.006203,482.562286 124.006203,482.562286 
z"/>
<path fill="#F6F6F6" opacity="1.000000" stroke="none" 
	d="
M124.415939,482.657227 
	C124.006203,482.562286 124.062248,482.348969 124.047821,482.295502 
	C127.508812,477.302521 130.984222,472.362976 134.976410,466.688965 
	C137.111465,471.834900 138.866989,476.066132 140.908188,480.985840 
	C135.230301,481.609436 130.027985,482.180817 124.415939,482.657227 
z"/>
<path fill="#81B2B3" opacity="1.000000" stroke="none" 
	d="
M60.196892,473.811066 
	C55.510052,472.520813 50.823208,471.230530 45.176807,469.676117 
	C49.769791,465.543793 53.548660,462.143921 57.519630,458.571259 
	C57.895256,459.348938 58.503059,460.607300 59.106903,462.657013 
	C59.467594,466.902588 59.832245,470.356812 60.196892,473.811066 
z"/>
<path fill="#81B2B3" opacity="1.000000" stroke="none" 
	d="
M43.882149,468.783936 
	C39.365360,467.138062 35.216770,465.512451 30.156275,463.529510 
	C33.463768,459.979767 36.381161,456.848694 40.112064,452.844513 
	C41.671165,458.857330 42.960754,463.830780 43.882149,468.783936 
z"/>
<path fill="#EFEFEF" opacity="1.000000" stroke="none" 
	d="
M146.573792,479.718933 
	C144.902008,479.993744 143.621002,480.153595 141.350174,480.436981 
	C144.583496,475.958740 147.313080,472.178192 150.573700,467.662170 
	C151.427216,471.375671 152.095490,474.283264 152.881760,477.704193 
	C150.911789,478.336700 148.938202,478.970337 146.573792,479.718933 
z"/>
<path fill="#81B2B3" opacity="1.000000" stroke="none" 
	d="
M47.697578,429.655884 
	C48.658859,428.329865 49.412777,427.307373 50.166695,426.284851 
	C50.454906,426.367126 50.743118,426.449371 51.031334,426.531647 
	C50.489269,430.224426 49.947208,433.917206 49.380840,437.775604 
	C47.077137,437.775604 45.181740,437.775604 42.509518,437.775604 
	C44.369114,434.857330 45.929668,432.408325 47.697578,429.655884 
z"/>
<path fill="#CECFCF" opacity="1.000000" stroke="none" 
	d="
M180.979401,391.420654 
	C180.993027,391.003662 181.309921,390.815186 181.484741,390.873688 
	C183.391953,396.153259 183.299530,401.119781 180.636246,405.727631 
	C180.126007,405.661194 179.615753,405.594757 179.105515,405.528320 
	C179.725616,400.964752 180.345703,396.401184 180.979401,391.420654 
z"/>
<path fill="#EFEFEF" opacity="1.000000" stroke="none" 
	d="
M60.510799,474.010132 
	C59.832245,470.356812 59.467594,466.902588 59.064758,462.992615 
	C60.800011,466.503113 62.573456,470.469330 64.739433,475.313446 
	C62.801579,474.766815 61.813141,474.488007 60.510799,474.010132 
z"/>
<path fill="#86B9BA" opacity="1.000000" stroke="none" 
	d="
M47.249146,422.915283 
	C47.150990,422.380859 47.363987,421.808655 47.910828,421.222534 
	C48.016541,421.764923 47.788422,422.321228 47.249146,422.915283 
z"/>
<path fill="#86B9BA" opacity="1.000000" stroke="none" 
	d="
M46.377953,424.067627 
	C46.166752,423.731110 46.255287,423.376984 46.642551,422.986542 
	C46.853413,423.316803 46.765549,423.683411 46.377953,424.067627 
z"/>
<path fill="#86B9BA" opacity="1.000000" stroke="none" 
	d="
M48.517410,421.147339 
	C48.348206,420.864624 48.456867,420.516357 48.854240,420.099518 
	C49.027058,420.381226 48.911167,420.731506 48.517410,421.147339 
z"/>
<path fill="#81B2B3" opacity="1.000000" stroke="none" 
	d="
M77.593796,395.809998 
	C77.731613,396.116669 77.583237,396.476746 77.126770,396.830688 
	C76.981651,396.504150 77.144630,396.183777 77.593796,395.809998 
z"/>
<path fill="#0E3646" opacity="1.000000" stroke="none" 
	d="
M152.299622,274.391663 
	C151.774872,274.632904 151.087387,274.649445 150.399902,274.666016 
	C150.661453,274.398285 150.923019,274.130585 151.479797,273.804626 
	C151.895630,273.886566 152.016266,274.026764 152.299622,274.391663 
z"/>
</svg>